<?xml version="1.0" encoding="UTF-8"?><svg id="Layer_2" xmlns="http://www.w3.org/2000/svg" xmlns:xlink="http://www.w3.org/1999/xlink" viewBox="0 0 1025.3 233.8" style="background-color:white"><defs><style>.cls-1{fill:url(#linear-gradient-2);fill-rule:evenodd;}.cls-2{stroke:#ff1d25;}.cls-2,.cls-3,.cls-4,.cls-5,.cls-6,.cls-7,.cls-8,.cls-9,.cls-10,.cls-11,.cls-12{fill:none;stroke-miterlimit:10;}.cls-2,.cls-3,.cls-4,.cls-5,.cls-6,.cls-7,.cls-8,.cls-11,.cls-12{stroke-width:2px;}.cls-13{fill:#3c444c;}.cls-14{fill:#ff931e;}.cls-3{stroke:#bcb4ac;}.cls-4{stroke:#7ac943;}.cls-5{stroke:#3fa9f5;}.cls-6{stroke:#589cb4;}.cls-6,.cls-12{stroke-dasharray:4;}.cls-15{fill:url(#linear-gradient);}.cls-16{fill:#bcb4ac;}.cls-17{fill:#3fa9f5;}.cls-7{stroke:#3c444c;}.cls-18{fill:#7ac943;}.cls-8{stroke:#ff931e;}.cls-9,.cls-10,.cls-11,.cls-12{stroke:#000;}.cls-19{fill:#157394;}.cls-10{stroke-dasharray:3;}.cls-20{fill:#ff1d25;}</style><linearGradient id="linear-gradient" x1="828.4" y1="44.1" x2="845.1" y2="13.6" gradientUnits="userSpaceOnUse"><stop offset="0" stop-color="#b0aaa3"/><stop offset="0" stop-color="#a19c97"/><stop offset=".1" stop-color="#7c7d7c"/><stop offset=".2" stop-color="#606467"/><stop offset=".4" stop-color="#4c5258"/><stop offset=".5" stop-color="#40474f"/><stop offset=".6" stop-color="#3c444c"/><stop offset=".7" stop-color="#3e464d"/><stop offset=".8" stop-color="#464d54"/><stop offset=".8" stop-color="#555a5f"/><stop offset=".9" stop-color="#696b6e"/><stop offset=".9" stop-color="#848382"/><stop offset="1" stop-color="#a39e99"/><stop offset="1" stop-color="#bcb4ac"/></linearGradient><linearGradient id="linear-gradient-2" x1="820.3" y1="166.5" x2="857.8" y2="186.1" gradientUnits="userSpaceOnUse"><stop offset="0" stop-color="#b0aaa3"/><stop offset="0" stop-color="#a19c97"/><stop offset=".1" stop-color="#7c7d7c"/><stop offset=".2" stop-color="#606467"/><stop offset=".3" stop-color="#4c5258"/><stop offset=".4" stop-color="#40474f"/><stop offset=".5" stop-color="#3c444c"/><stop offset=".7" stop-color="#3e454d"/><stop offset=".8" stop-color="#454c53"/><stop offset=".8" stop-color="#52575c"/><stop offset=".9" stop-color="#65676a"/><stop offset=".9" stop-color="#7c7c7c"/><stop offset="1" stop-color="#999692"/><stop offset="1" stop-color="#bcb4ac"/></linearGradient></defs><g id="Layer_1-2"><line class="cls-3" x1="188.9" y1="129.2" x2="261.9" y2="171.2"/><line class="cls-3" x1="188.9" y1="87.2" x2="261.9" y2="171.2"/><line class="cls-3" x1="188.9" y1="87.2" x2="261.9" y2="129.2"/><line class="cls-3" x1="188.9" y1="44.2" x2="261.9" y2="44.2"/><line class="cls-7" x1="188.9" y1="87.2" x2="261.9" y2="87.2"/><line class="cls-3" x1="188.9" y1="129.2" x2="261.9" y2="129.2"/><line class="cls-3" x1="188.9" y1="171.2" x2="261.9" y2="171.2"/><line class="cls-3" x1="188.9" y1="87.2" x2="261.9" y2="44.2"/><line class="cls-7" x1="188.9" y1="129.2" x2="261.9" y2="87.2"/><line class="cls-7" x1="188.9" y1="171.2" x2="261.9" y2="87.2"/><line class="cls-3" x1="188.9" y1="171.2" x2="261.9" y2="129.2"/><line class="cls-7" x1="188.9" y1="44.2" x2="261.9" y2="87.2"/><line class="cls-7" x1="262.4" y1="87.2" x2="335.4" y2="87.2"/><line class="cls-3" x1="262.4" y1="129.2" x2="335.4" y2="87.2"/><line class="cls-3" x1="262.4" y1="171.2" x2="335.4" y2="87.2"/><line class="cls-3" x1="262.4" y1="44.2" x2="335.4" y2="87.2"/><circle class="cls-13" cx="188.9" cy="44.2" r="12.5"/><circle class="cls-13" cx="188.9" cy="171.2" r="12.5"/><circle class="cls-13" cx="188.9" cy="87.2" r="12.5"/><circle class="cls-13" cx="188.9" cy="129.2" r="12.5"/><circle class="cls-16" cx="261.9" cy="44.2" r="12.5"/><circle class="cls-16" cx="261.9" cy="171.2" r="12.5"/><circle class="cls-13" cx="261.9" cy="87.2" r="12.5"/><circle class="cls-16" cx="261.9" cy="129.2" r="12.5"/><circle class="cls-13" cx="334.9" cy="87.2" r="12.5"/><line class="cls-3" x1="586.7" y1="135.5" x2="659.7" y2="177.5"/><line class="cls-3" x1="586.7" y1="93.5" x2="659.7" y2="177.5"/><line class="cls-3" x1="586.7" y1="93.5" x2="659.7" y2="135.5"/><line class="cls-3" x1="586.7" y1="50.5" x2="659.7" y2="50.5"/><line class="cls-7" x1="586.7" y1="93.5" x2="659.7" y2="93.5"/><line class="cls-3" x1="586.7" y1="135.5" x2="659.7" y2="135.5"/><line class="cls-3" x1="586.7" y1="177.5" x2="659.7" y2="177.5"/><line class="cls-3" x1="586.7" y1="93.5" x2="659.7" y2="50.5"/><line class="cls-7" x1="586.7" y1="135.5" x2="659.7" y2="93.5"/><line class="cls-7" x1="586.7" y1="177.5" x2="659.7" y2="93.5"/><line class="cls-3" x1="586.7" y1="177.5" x2="659.7" y2="135.5"/><line class="cls-7" x1="586.7" y1="50.5" x2="659.7" y2="93.5"/><line class="cls-7" x1="660.2" y1="93.5" x2="733.2" y2="93.5"/><line class="cls-3" x1="660.2" y1="135.5" x2="733.2" y2="93.5"/><line class="cls-3" x1="660.2" y1="177.5" x2="733.2" y2="93.5"/><line class="cls-3" x1="660.2" y1="50.5" x2="733.2" y2="93.5"/><circle class="cls-13" cx="586.7" cy="50.5" r="12.5"/><circle class="cls-13" cx="586.7" cy="177.5" r="12.5"/><circle class="cls-13" cx="586.7" cy="93.5" r="12.5"/><circle class="cls-13" cx="586.7" cy="135.5" r="12.5"/><circle class="cls-16" cx="659.7" cy="50.5" r="12.5"/><circle class="cls-16" cx="659.7" cy="177.5" r="12.5"/><circle class="cls-13" cx="659.7" cy="93.5" r="12.5"/><circle class="cls-16" cx="659.7" cy="135.5" r="12.5"/><circle class="cls-13" cx="732.7" cy="93.5" r="12.5"/><line class="cls-7" x1="28.4" y1="184.7" x2="106.4" y2="184.7"/><line class="cls-7" x1="69.4" y1="117.7" x2="106.4" y2="184.7"/><line class="cls-7" x1="69.9" y1="118.2" x2="28.9" y2="184.2"/><line class="cls-7" x1="69.4" y1="52.7" x2="69.4" y2="118.7"/><circle class="cls-13" cx="69.4" cy="58.7" r="12.5"/><circle class="cls-19" cx="69.4" cy="123.7" r="12.5"/><circle class="cls-13" cx="29.4" cy="183.7" r="12.5"/><circle class="cls-13" cx="106.4" cy="184.7" r="12.5"/><path class="cls-2" d="M196.2,52.5c13.6,9.3,40.8,16.8,70,21.4,19.3,3.1,32.3,3.3,44.4,3.3"/><polygon class="cls-20" points="321.2 77.2 306.3 83.3 309.8 77.2 306.3 71.1 321.2 77.2"/><path class="cls-8" d="M196.2,83.2h114.7"/><polygon class="cls-14" points="321.4 83.2 306.5 89.3 310.1 83.2 306.5 77.1 321.4 83.2"/><path class="cls-4" d="M195.7,119.1c16.4-11.9,19.5-15.3,41.8-23.9,17.8-6.9,53.1-5.8,73.3-5.2"/><polygon class="cls-18" points="321.4 90.2 306.4 95.9 310.1 89.9 306.7 83.7 321.4 90.2"/><path class="cls-5" d="M196.2,158.7c9.7-17,16-29.5,32-40,13.6-8.9,25.6-13.8,37.8-16.6,8.2-1.9,21.6-5,44.9-5.1"/><polygon class="cls-17" points="321.4 97.2 306.5 103.1 310.1 97 306.6 90.9 321.4 97.2"/><circle class="cls-20" cx="196.2" cy="52.5" r="6"/><circle class="cls-14" cx="196.2" cy="83.2" r="6"/><circle class="cls-18" cx="196.2" cy="119.1" r="6"/><circle class="cls-17" cx="196.2" cy="158.7" r="6"/><rect class="cls-20" x="499.2" y="144.3" width="3.5" height="14.1"/><rect class="cls-14" x="502.7" y="144.3" width="3.5" height="14.1"/><rect class="cls-18" x="506.3" y="144.3" width="3.5" height="14.1"/><rect class="cls-17" x="509.8" y="144.3" width="3.5" height="14.1"/><rect class="cls-20" x="615.6" y="63.5" width="14.1" height="14.1"/><rect class="cls-14" x="615.6" y="86" width="14.1" height="14.1"/><rect class="cls-18" x="616.2" y="106.7" width="14.1" height="14.1"/><rect class="cls-17" x="616.2" y="128.6" width="14.1" height="14.1"/><circle class="cls-20" cx="407" cy="151.5" r="6"/><circle class="cls-14" cx="423" cy="151.3" r="6"/><circle class="cls-18" cx="439" cy="151.3" r="6"/><circle class="cls-17" cx="454" cy="151.3" r="6"/><line class="cls-9" x1="462.7" y1="151.7" x2="490.2" y2="151.7"/><polygon points="489.1 155.4 495.6 151.7 489.1 147.9 489.1 155.4"/><rect class="cls-20" x="690.7" y="86" width="3.5" height="14.1"/><rect class="cls-14" x="694.2" y="86" width="3.5" height="14.1"/><rect class="cls-18" x="697.8" y="86" width="3.5" height="14.1"/><rect class="cls-17" x="701.3" y="86" width="3.5" height="14.1"/><rect class="cls-20" x="499.2" y="65.6" width="14.1" height="14.1"/><line class="cls-9" x1="462.7" y1="72.7" x2="490.2" y2="72.7"/><polygon points="489.1 76.4 495.6 72.7 489.1 68.9 489.1 76.4"/><circle class="cls-20" cx="454" cy="72.7" r="6"/><rect class="cls-14" x="499.2" y="85.4" width="14.1" height="14.1"/><line class="cls-9" x1="462.7" y1="92.4" x2="490.2" y2="92.4"/><polygon points="489.1 96.2 495.6 92.4 489.1 88.7 489.1 96.2"/><circle class="cls-14" cx="454" cy="92.4" r="6"/><rect class="cls-18" x="499.2" y="105.3" width="14.1" height="14.1"/><line class="cls-9" x1="462.7" y1="112.4" x2="490.2" y2="112.4"/><polygon points="489.1 116.1 495.6 112.4 489.1 108.6 489.1 116.1"/><circle class="cls-18" cx="454" cy="112.4" r="6"/><rect class="cls-17" x="499.2" y="125" width="14.1" height="14.1"/><line class="cls-9" x1="462.7" y1="132.1" x2="490.2" y2="132.1"/><polygon points="489.1 135.8 495.6 132.1 489.1 128.4 489.1 135.8"/><circle class="cls-17" cx="454" cy="132.1" r="6"/><rect class="cls-12" x="147.4" y="1" width="207.9" height="207.9"/><path d="M159.1,41.8c-.6,0-1,.4-1,.9,0,.3.2.4.4.5.1,0,.4.3.4.5s-.2.6-.7.6-.8-.3-.8-1,.4-1.5.7-1.7c.4-.4.8-.9,2.1-.9,1.8,0,2.1,0,2.3,0s.4.1.2.3c-.4.5-2.1,2.9-2.1,4.7s.6,1.7,1.3,1.7c1.5,0,3.1-2.4,3.1-4.2s0-.6-.1-.9c-.1-.3-.3-.5-.3-.7,0-.5.3-.8.8-.8s.7.5.7,1c0,.9-.4,2.7-1.2,4-.8,1.4-2.3,2.7-3.7,2.7s-1.8-.6-1.8-1.9,1.5-3.9,2.5-5.1h-.1c-.4.3-1.3.4-1.7.4h-.9Z"/><path d="M171.8,45.1c0,2.4-1.6,5.1-3.6,5.1s-1.9-.9-1.9-2.1c0-2.1,1.6-5,3.7-5s1.8.8,1.8,1.9ZM167.2,48.4c0,.9.5,1.3.8,1.3,1.5,0,2.7-3.3,2.7-5s-.4-1.1-.9-1.1c-1.4,0-2.6,3.2-2.6,4.8Z"/><path d="M159.1,86.1c-.6,0-1,.4-1,.9,0,.3.2.4.4.5.1,0,.4.3.4.5s-.2.6-.7.6-.8-.3-.8-1,.4-1.5.7-1.7c.4-.4.8-.9,2.1-.9,1.8,0,2.1,0,2.3,0s.4.1.2.3c-.4.5-2.1,2.9-2.1,4.7s.6,1.7,1.3,1.7c1.5,0,3.1-2.4,3.1-4.2s0-.6-.1-.9c-.1-.3-.3-.5-.3-.7,0-.5.3-.8.8-.8s.7.5.7,1c0,.9-.4,2.7-1.2,4-.8,1.4-2.3,2.7-3.7,2.7s-1.8-.6-1.8-1.9,1.5-3.9,2.5-5.1h-.1c-.4.3-1.3.4-1.7.4h-.9Z"/><path d="M166.8,93.9c.4,0,.6,0,.9-.5,0-.1.2-.4.4-1.2l.8-2.4c.2-.6.3-1,.3-1s0-.1-.1-.1-.4,0-.7.2l-.6.2c0,0,0,0-.1,0v-.2c-.1,0-.1,0,0-.1l2.6-1.3c.2,0,.3-.1.4-.1s.2,0,.2.1,0,.1,0,.3c-.2.6-.7,1.8-1,2.7l-.5,1.6c-.2.7-.3,1.1-.4,1.2-.1.4,0,.6.3.6h.5c0,0,.1,0,0,0v.3c0,0-.1,0-.2,0s-1.5,0-1.7,0-1.6,0-1.7,0,0,0,0,0v-.3c0,0,.1,0,.2,0h.6Z"/><path d="M159.1,127.5c-.6,0-1,.4-1,.9,0,.3.2.4.4.5.1,0,.4.3.4.5s-.2.6-.7.6-.8-.3-.8-1,.4-1.5.7-1.7c.4-.4.8-.9,2.1-.9,1.8,0,2.1,0,2.3,0s.4.1.2.3c-.4.5-2.1,2.9-2.1,4.7s.6,1.7,1.3,1.7c1.5,0,3.1-2.4,3.1-4.2s0-.6-.1-.9c-.1-.3-.3-.5-.3-.7,0-.5.3-.8.8-.8s.7.5.7,1c0,.9-.4,2.7-1.2,4-.8,1.4-2.3,2.7-3.7,2.7s-1.8-.6-1.8-1.9,1.5-3.9,2.5-5.1h-.1c-.4.3-1.3.4-1.7.4h-.9Z"/><path d="M169.1,135c.6,0,.9-.3,1.2-.8,0,0,.1,0,.2,0h.1c0,.1,0,.2,0,.2-.3.4-.7,1.4-.7,1.5,0,0,0,.1-.2.1s-.1,0-.2-.1c0,0-.3,0-.7,0h-2.9c-.2,0-.2,0-.2-.1s0-.2.1-.2c1.4-1.1,4.2-3,4.2-4.7s-.3-1.2-1-1.2-1.2.8-1.4,1.1c0,.1-.1.2-.2.1h-.2c0-.1,0-.2,0-.3.2-.5,1-1.7,2.3-1.7s1.7.7,1.7,1.6c0,1.9-2.7,3.6-4.1,4.5h0s2,0,2,0Z"/><path d="M159.1,168.8c-.6,0-1,.4-1,.9,0,.3.2.4.4.5.1,0,.4.3.4.5s-.2.6-.7.6-.8-.3-.8-1,.4-1.5.7-1.7c.4-.4.8-.9,2.1-.9,1.8,0,2.1,0,2.3,0s.4.1.2.3c-.4.5-2.1,2.9-2.1,4.7s.6,1.7,1.3,1.7c1.5,0,3.1-2.4,3.1-4.2s0-.6-.1-.9c-.1-.3-.3-.5-.3-.7,0-.5.3-.8.8-.8s.7.5.7,1c0,.9-.4,2.7-1.2,4-.8,1.4-2.3,2.7-3.7,2.7s-1.8-.6-1.8-1.9,1.5-3.9,2.5-5.1h-.1c-.4.3-1.3.4-1.7.4h-.9Z"/><path d="M166.1,176c0-.2.2-.5.5-.5s.5.4.5.7c0,.2.3.5.8.5,1,0,1.9-.9,1.9-2s-.3-1-.8-1.2c-.2,0-.2-.1-.2-.2s0-.1.2-.2c.5-.1,1.5-.6,1.5-1.5s-.2-.8-.9-.8-.9.5-1.2.8c-.1.2-.2.2-.3.2h-.2c0-.2,0-.3,0-.3.3-.4.9-1.3,2.1-1.3s1.5.6,1.5,1c0,.8-.7,1.5-1.6,1.9.7.4,1,.9,1,1.5,0,1.5-1.6,2.6-3.1,2.6s-1.7-.6-1.7-1.2Z"/><path d="M211,193.2h.2s-.7,2.2-.7,2.2h-6.2v-.2h.3c.3,0,.6-.1.7-.3,0-.1.1-.4.1-.9v-5.1c0-.5,0-.8-.2-.9-.2-.2-.4-.3-.7-.3h-.3v-.2h3.6v.2c-.4,0-.7,0-.9.1s-.3.2-.3.3,0,.4,0,.9v5c0,.3,0,.5,0,.7,0,0,.1.1.2.2s.4,0,.9,0h.6c.6,0,1,0,1.3-.1s.5-.2.7-.5.4-.6.6-1.1Z"/><path d="M214.9,194.6c-.6.4-.9.7-1,.7-.2,0-.4.1-.7.1-.4,0-.7-.1-.9-.4s-.4-.6-.4-1,0-.5.2-.7c.2-.3.4-.5.8-.8s1.1-.5,2-.9v-.2c0-.5,0-.9-.3-1.1s-.4-.3-.7-.3-.4,0-.6.2c-.1.1-.2.3-.2.5v.3c0,.2,0,.3-.1.4s-.2.1-.4.1-.3,0-.4-.2-.1-.2-.1-.4c0-.3.2-.6.5-.9s.8-.4,1.4-.4.9,0,1.2.2c.2.1.4.3.5.6,0,.2.1.5.1,1v1.8c0,.5,0,.8,0,.9s0,.2,0,.2,0,0,.2,0,.1,0,.2,0c0,0,.2-.2.5-.4v.3c-.4.6-.9.9-1.3.9s-.3,0-.5-.2-.2-.4-.2-.7ZM214.9,194.2v-2c-.6.2-1,.4-1.1.5-.3.2-.5.4-.7.5s-.2.4-.2.6,0,.5.3.7.4.3.6.3.7-.2,1.2-.6Z"/><path d="M216.9,190h2.5v.2h-.1c-.2,0-.3,0-.4.1s-.1.2-.1.3,0,.4.2.6l1.3,2.7,1.2-3c0-.2,0-.3,0-.5s0-.1,0-.2c0,0,0,0-.1-.1s-.2,0-.4,0v-.2h1.7v.2c-.1,0-.3,0-.3,0s-.2.1-.3.3c0,0-.1.2-.2.5l-2.2,5.4c-.2.5-.5.9-.8,1.2s-.7.4-1,.4-.4,0-.6-.2-.2-.3-.2-.5,0-.3.2-.4.3-.1.4-.1.3,0,.5.1c.2,0,.3,0,.3,0,.1,0,.2,0,.4-.2s.3-.4.4-.7l.4-.9-1.9-4c0-.1-.2-.3-.3-.5,0-.1-.2-.2-.2-.3,0,0-.2-.1-.4-.2v-.2Z"/><path d="M224.1,192c0,.8.2,1.4.6,1.9s.8.7,1.4.7.7,0,.9-.3.5-.5.7-1h.2c0,.7-.3,1.1-.7,1.6s-.9.7-1.5.7-1.2-.3-1.7-.8-.7-1.2-.7-2,.2-1.6.7-2.1,1.1-.8,1.8-.8,1.1.2,1.5.6.6.9.6,1.6h-3.7ZM224.1,191.7h2.5c0-.3,0-.6-.1-.7,0-.2-.2-.4-.4-.5s-.4-.2-.6-.2c-.3,0-.6.1-.9.4s-.4.6-.4,1.1Z"/><path d="M230.1,189.8v1.2c.4-.8.9-1.2,1.4-1.2s.4,0,.5.2.2.3.2.5,0,.3-.2.4-.2.2-.4.2-.3,0-.5-.2-.3-.2-.4-.2-.1,0-.2.1c-.2.2-.4.4-.5.8v2.6c0,.3,0,.5.1.7,0,.1.1.2.3.3s.3.1.6.1v.2h-2.7v-.2c.3,0,.5,0,.6-.1,0,0,.2-.2.2-.3,0,0,0-.3,0-.6v-2.1c0-.6,0-1,0-1.1s0-.2-.1-.3-.2,0-.3,0-.3,0-.4,0v-.2c0,0,1.6-.7,1.6-.7h.2Z"/><path d="M236.5,188.2l1.9-.9h.2v6.7c0,.4,0,.7,0,.8s.1.2.2.3.4,0,.7,0v.2h-3v-.2c.4,0,.6,0,.7,0s.2-.1.2-.2,0-.4,0-.9v-4.3c0-.6,0-.9,0-1.1,0-.1,0-.2-.1-.3s-.2,0-.3,0c-.1,0-.3,0-.6.2v-.2Z"/><path d="M203,20.4l-3.6-7.8v6.2c0,.6,0,.9.2,1.1.2.2.4.3.8.3h.3v.3h-3.2v-.3h.3c.4,0,.7-.1.8-.4.1-.1.2-.5.2-1v-6.1c0-.4,0-.7-.1-.9,0-.1-.2-.2-.4-.3s-.4-.1-.8-.1v-.3h2.6l3.4,7.3,3.3-7.3h2.6v.3h-.3c-.4,0-.7.1-.8.4-.1.1-.2.5-.2,1v6.1c0,.6,0,.9.2,1.1.2.2.4.3.8.3h.3v.3h-3.9v-.3h.3c.4,0,.7-.1.8-.4.1-.1.2-.5.2-1v-6.2l-3.6,7.8h-.2Z"/><path d="M211.2,16.5c0,.9.2,1.7.7,2.2s1,.8,1.6.8.8-.1,1.1-.3.6-.6.8-1.2h.2c0,.8-.4,1.3-.8,1.8s-1,.8-1.7.8-1.4-.3-1.9-.9-.8-1.4-.8-2.4.3-1.9.8-2.5,1.2-.9,2.1-.9,1.3.2,1.7.7.7,1.1.7,1.9h-4.3ZM211.2,16.1h2.9c0-.4,0-.7-.1-.8-.1-.3-.3-.5-.5-.6s-.5-.2-.7-.2c-.4,0-.7.1-1,.4s-.5.7-.5,1.2Z"/><path d="M220.4,13.9v2.1h-.2c-.2-.7-.4-1.1-.7-1.4s-.6-.4-1-.4-.6,0-.8.3-.3.4-.3.6,0,.5.2.7c.1.2.4.4.9.6l1,.5c.9.5,1.4,1,1.4,1.8s-.2,1-.6,1.4-.9.5-1.4.5-.8,0-1.3-.2c-.2,0-.3,0-.4,0s-.2,0-.2.2h-.2v-2.2h.2c.1.6.4,1.1.7,1.4s.8.5,1.2.5.6,0,.8-.3.3-.4.3-.7-.1-.6-.3-.8-.7-.5-1.3-.8-1.1-.6-1.3-.9c-.2-.3-.3-.6-.3-1s.2-.9.5-1.3.8-.5,1.4-.5.5,0,.9.2c.2,0,.4.1.5.1s.1,0,.2,0,0-.1.1-.2h.2Z"/><path d="M225.9,13.9v2.1h-.2c-.2-.7-.4-1.1-.7-1.4s-.6-.4-1-.4-.6,0-.8.3-.3.4-.3.6,0,.5.2.7c.1.2.4.4.9.6l1,.5c.9.5,1.4,1,1.4,1.8s-.2,1-.6,1.4-.9.5-1.4.5-.8,0-1.3-.2c-.2,0-.3,0-.4,0s-.2,0-.2.2h-.2v-2.2h.2c.1.6.4,1.1.7,1.4s.8.5,1.2.5.6,0,.8-.3.3-.4.3-.7-.1-.6-.3-.8-.7-.5-1.3-.8-1.1-.6-1.3-.9c-.2-.3-.3-.6-.3-1s.2-.9.5-1.3.8-.5,1.4-.5.5,0,.9.2c.2,0,.4.1.5.1s.1,0,.2,0,0-.1.1-.2h.2Z"/><path d="M230.8,19.5c-.6.5-1,.8-1.2.9-.2.1-.5.2-.8.2-.4,0-.8-.1-1.1-.4s-.4-.7-.4-1.2,0-.6.2-.8c.2-.3.5-.6,1-.9s1.2-.6,2.3-1v-.2c0-.6,0-1.1-.3-1.3s-.5-.3-.9-.3-.5,0-.7.2c-.2.2-.3.3-.3.5v.4c0,.2,0,.4-.1.5s-.2.2-.4.2-.3,0-.4-.2-.2-.3-.2-.5c0-.4.2-.8.6-1.1s1-.5,1.7-.5,1,0,1.4.3c.3.1.5.4.6.7,0,.2.1.6.1,1.2v2.1c0,.6,0,1,0,1.1s0,.2.1.3.1,0,.2,0,.1,0,.2,0c0,0,.3-.2.6-.5v.4c-.5.7-1,1-1.5,1s-.4,0-.5-.2-.2-.4-.2-.8ZM230.8,19v-2.4c-.7.3-1.1.5-1.3.6-.4.2-.6.4-.8.6s-.2.5-.2.7,0,.6.3.8.4.3.7.3.8-.2,1.4-.7Z"/><path d="M235.2,18.1c-.4-.2-.7-.4-.9-.8s-.3-.7-.3-1.1c0-.6.2-1.2.7-1.6s1.1-.7,1.8-.7,1.1.1,1.6.4h1.3c.2,0,.3,0,.3,0s0,0,0,0c0,0,0,.1,0,.2s0,.2,0,.2c0,0,0,0,0,0s-.1,0-.3,0h-.8c.3.3.4.7.4,1.3s-.2,1.1-.7,1.5-1,.6-1.8.6-.6,0-1-.1c-.2.2-.3.3-.4.5s-.1.2-.1.3,0,.2.1.2.2.1.4.2c.1,0,.4,0,1,0,.9,0,1.5,0,1.8,0,.4,0,.8.2,1,.5s.4.6.4.9-.2,1-.7,1.4c-.7.7-1.6,1-2.8,1s-1.6-.2-2.2-.6c-.3-.2-.5-.5-.5-.7s0-.2,0-.3c0-.2.2-.4.5-.7,0,0,.3-.3.7-.7-.2-.1-.4-.3-.5-.4s-.1-.2-.1-.4,0-.3.2-.6.4-.5.9-.9ZM235.1,20.4c-.2.2-.4.4-.5.6s-.2.4-.2.6.1.4.4.6c.5.3,1.1.4,2,.4s1.4-.1,1.8-.4.6-.6.6-.9-.1-.4-.3-.5c-.2-.1-.7-.2-1.4-.2-1,0-1.8,0-2.4-.2ZM236.3,14.2c-.3,0-.6.1-.8.4s-.3.7-.3,1.2.2,1.3.5,1.7c.2.3.5.5.9.5s.6-.1.9-.4.3-.7.3-1.2-.2-1.3-.5-1.7c-.2-.3-.5-.5-.9-.5Z"/><path d="M241.5,16.5c0,.9.2,1.7.7,2.2s1,.8,1.6.8.8-.1,1.1-.3.6-.6.8-1.2h.2c0,.8-.4,1.3-.8,1.8s-1,.8-1.7.8-1.4-.3-1.9-.9-.8-1.4-.8-2.4.3-1.9.8-2.5,1.2-.9,2.1-.9,1.3.2,1.7.7.7,1.1.7,1.9h-4.3ZM241.5,16.1h2.9c0-.4,0-.7-.1-.8-.1-.3-.3-.5-.5-.6s-.5-.2-.7-.2c-.4,0-.7.1-1,.4s-.5.7-.5,1.2Z"/><path d="M252.6,11.6v3.6h1.7c.4,0,.7,0,.9-.3s.3-.5.4-1h.3v3.1h-.3c0-.4,0-.6-.1-.8s-.2-.3-.4-.4-.4-.1-.7-.1h-1.7v2.9c0,.5,0,.8,0,.9,0,.1.1.2.3.3.2.1.4.2.6.2h.3v.3h-4v-.3h.3c.4,0,.7-.1.8-.3.1-.1.2-.5.2-1.1v-6c0-.5,0-.8,0-.9,0-.1-.1-.2-.3-.3-.2-.1-.4-.2-.6-.2h-.3v-.3h6.9v2c0,0-.2,0-.2,0-.1-.4-.3-.8-.4-1s-.4-.3-.6-.4-.6-.1-1.1-.1h-2Z"/><path d="M260.1,10.6v8.3c0,.4,0,.7,0,.8s.1.2.3.3.3,0,.7,0v.2h-3.1v-.2c.3,0,.5,0,.6,0s.2-.2.2-.3,0-.4,0-.8v-5.7c0-.7,0-1.1,0-1.3s0-.3-.2-.3-.2,0-.3,0-.3,0-.5.1v-.2c-.1,0,1.8-.8,1.8-.8h.3Z"/><path d="M264.9,13.9c.9,0,1.7.4,2.3,1.1.5.6.7,1.3.7,2.1s-.1,1.1-.4,1.7-.6,1-1.1,1.3-1,.4-1.6.4c-.9,0-1.7-.4-2.2-1.1-.5-.6-.7-1.3-.7-2.1s.1-1.1.4-1.7.7-1,1.1-1.3,1-.4,1.5-.4ZM264.7,14.4c-.2,0-.5,0-.7.2s-.4.4-.6.8-.2.8-.2,1.4c0,.9.2,1.7.5,2.4s.8,1,1.4,1,.8-.2,1.1-.5.4-1,.4-1.9-.2-2-.7-2.6c-.3-.4-.7-.7-1.2-.7Z"/><path d="M268.5,14.1h2.6v.3c-.2,0-.4,0-.5.1s-.1.2-.1.3,0,.3.1.5l1.3,3.6,1.3-2.9-.4-.9c-.1-.3-.3-.5-.4-.6-.1,0-.3-.1-.6-.1v-.3h3v.3c-.3,0-.6,0-.7.2,0,0-.1.2-.1.3s0,.2,0,.3l1.4,3.6,1.3-3.5c0-.2.1-.4.1-.6s0-.2-.1-.2-.3-.1-.5-.1v-.3h2v.3c-.4,0-.7.3-.9.8l-2.1,5.4h-.3l-1.6-4-1.8,4h-.3l-2-5.3c-.1-.3-.3-.6-.4-.7s-.3-.2-.6-.3v-.3Z"/><path d="M287.8,20.4l-3.6-7.8v6.2c0,.6,0,.9.2,1.1.2.2.4.3.8.3h.3v.3h-3.2v-.3h.3c.4,0,.7-.1.8-.4.1-.1.2-.5.2-1v-6.1c0-.4,0-.7-.1-.9,0-.1-.2-.2-.4-.3s-.4-.1-.8-.1v-.3h2.6l3.4,7.3,3.3-7.3h2.6v.3h-.3c-.4,0-.7.1-.8.4-.1.1-.2.5-.2,1v6.1c0,.6,0,.9.2,1.1.2.2.4.3.8.3h.3v.3h-3.9v-.3h.3c.4,0,.7-.1.8-.4.1-.1.2-.5.2-1v-6.2l-3.6,7.8h-.2Z"/><path d="M298.5,19.5c-.6.5-1,.8-1.2.9-.2.1-.5.2-.8.2-.4,0-.8-.1-1.1-.4s-.4-.7-.4-1.2,0-.6.2-.8c.2-.3.5-.6,1-.9s1.2-.6,2.3-1v-.2c0-.6,0-1.1-.3-1.3s-.5-.3-.9-.3-.5,0-.7.2c-.2.2-.3.3-.3.5v.4c0,.2,0,.4-.1.5s-.2.2-.4.2-.3,0-.4-.2-.2-.3-.2-.5c0-.4.2-.8.6-1.1s1-.5,1.7-.5,1,0,1.4.3c.3.1.5.4.6.7,0,.2.1.6.1,1.2v2.1c0,.6,0,1,0,1.1s0,.2.1.3.1,0,.2,0,.1,0,.2,0c0,0,.3-.2.6-.5v.4c-.5.7-1,1-1.5,1s-.4,0-.5-.2-.2-.4-.2-.8ZM298.5,19v-2.4c-.7.3-1.1.5-1.3.6-.4.2-.6.4-.8.6s-.2.5-.2.7,0,.6.3.8.4.3.7.3.8-.2,1.4-.7Z"/><path d="M305.2,13.9v2.1h-.2c-.2-.7-.4-1.1-.7-1.4s-.6-.4-1-.4-.6,0-.8.3-.3.4-.3.6,0,.5.2.7c.1.2.4.4.9.6l1,.5c.9.5,1.4,1,1.4,1.8s-.2,1-.6,1.4-.9.5-1.4.5-.8,0-1.3-.2c-.2,0-.3,0-.4,0s-.2,0-.2.2h-.2v-2.2h.2c.1.6.4,1.1.7,1.4s.8.5,1.2.5.6,0,.8-.3.3-.4.3-.7-.1-.6-.3-.8-.7-.5-1.3-.8-1.1-.6-1.3-.9c-.2-.3-.3-.6-.3-1s.2-.9.5-1.3.8-.5,1.4-.5.5,0,.9.2c.2,0,.4.1.5.1s.1,0,.2,0,0-.1.1-.2h.2Z"/><path d="M308.4,10.6v6.2l1.6-1.5c.3-.3.5-.5.6-.6,0,0,0-.1,0-.2,0,0,0-.2-.1-.2s-.2-.1-.4-.1v-.2h2.7v.2c-.4,0-.7,0-.9.2s-.5.3-.8.6l-1.6,1.5,1.6,2c.4.6.7.9.9,1.1.2.2.4.4.6.4.1,0,.3,0,.6,0v.2h-3v-.2c.2,0,.3,0,.4,0s0-.1,0-.2,0-.3-.3-.5l-1.9-2.5v2.1c0,.4,0,.7,0,.8s.1.2.2.3.3,0,.7,0v.2h-3.2v-.2c.3,0,.6,0,.7-.1,0,0,.2-.1.2-.2,0-.2.1-.4.1-.8v-5.7c0-.7,0-1.2,0-1.3s0-.3-.2-.3-.2,0-.3,0-.2,0-.4.1v-.2c-.1,0,1.7-.8,1.7-.8h.3Z"/><path d="M317.6,13.9v2.1h-.2c-.2-.7-.4-1.1-.7-1.4s-.6-.4-1-.4-.6,0-.8.3-.3.4-.3.6,0,.5.2.7c.1.2.4.4.9.6l1,.5c.9.5,1.4,1,1.4,1.8s-.2,1-.6,1.4-.9.5-1.4.5-.8,0-1.3-.2c-.2,0-.3,0-.4,0s-.2,0-.2.2h-.2v-2.2h.2c.1.6.4,1.1.7,1.4s.8.5,1.2.5.6,0,.8-.3.3-.4.3-.7-.1-.6-.3-.8-.7-.5-1.3-.8-1.1-.6-1.3-.9c-.2-.3-.3-.6-.3-1s.2-.9.5-1.3.8-.5,1.4-.5.5,0,.9.2c.2,0,.4.1.5.1s.1,0,.2,0,0-.1.1-.2h.2Z"/><rect class="cls-11" x="391.3" y="40.7" width="133.8" height="126.1"/><rect class="cls-12" x="562.3" y="8.9" width="189.6" height="190.2"/><path d="M612.7,22.6h.2s-.8,2.6-.8,2.6h-7.2v-.3h.3c.4,0,.7-.1.8-.4,0-.1.1-.5.1-1v-6c0-.6,0-.9-.2-1.1-.2-.2-.4-.3-.8-.3h-.3v-.3h4.2v.3c-.5,0-.8,0-1,.1-.2,0-.3.2-.4.4s-.1.5-.1,1v5.8c0,.4,0,.6.1.8,0,0,.1.2.3.2s.5,0,1.1,0h.7c.7,0,1.2,0,1.5-.2s.5-.3.8-.6.5-.7.7-1.3Z"/><path d="M617.2,24.3c-.6.5-1,.8-1.2.9-.2.1-.5.2-.8.2-.4,0-.8-.1-1.1-.4-.3-.3-.4-.7-.4-1.2s0-.6.2-.8c.2-.3.5-.6,1-.9.5-.3,1.2-.6,2.3-1v-.2c0-.6,0-1.1-.3-1.3-.2-.2-.5-.3-.9-.3s-.5,0-.7.2c-.2.2-.3.3-.3.5v.4c0,.2,0,.4-.1.5-.1.1-.2.2-.4.2s-.3,0-.4-.2c-.1-.1-.2-.3-.2-.5,0-.4.2-.8.6-1.1s1-.5,1.7-.5,1,0,1.4.3c.3.1.5.4.6.7,0,.2.1.6.1,1.2v2.1c0,.6,0,1,0,1.1s0,.2.1.3c0,0,.1,0,.2,0s.1,0,.2,0c0,0,.3-.2.6-.5v.4c-.5.7-1,1-1.5,1s-.4,0-.5-.2-.2-.4-.2-.8ZM617.2,23.9v-2.4c-.7.3-1.1.5-1.3.6-.4.2-.6.4-.8.6s-.2.5-.2.7,0,.6.3.8.4.3.7.3.8-.2,1.4-.7Z"/><path d="M619.5,18.9h2.9v.3h-.1c-.2,0-.4,0-.5.1-.1,0-.2.2-.2.3s0,.4.2.7l1.5,3.2,1.4-3.5c0-.2.1-.4.1-.6s0-.1,0-.2c0,0,0,0-.2-.1s-.2,0-.4,0v-.3h2v.3c-.2,0-.3,0-.4.1s-.2.2-.3.3c0,0-.1.2-.2.5l-2.5,6.2c-.2.6-.6,1.1-1,1.4-.4.3-.8.5-1.2.5s-.5,0-.7-.2-.3-.3-.3-.5,0-.3.2-.5c.1-.1.3-.2.5-.2s.4,0,.6.2c.2,0,.3.1.3.1.1,0,.3,0,.4-.2.2-.1.3-.4.5-.8l.4-1.1-2.2-4.7c0-.1-.2-.3-.3-.5-.1-.2-.2-.3-.3-.3-.1,0-.3-.1-.5-.2v-.3Z"/><path d="M627.9,21.3c0,.9.2,1.7.7,2.2s1,.8,1.6.8.8-.1,1.1-.3c.3-.2.6-.6.8-1.2h.2c0,.8-.4,1.3-.8,1.8s-1,.8-1.7.8-1.4-.3-1.9-.9c-.5-.6-.8-1.4-.8-2.4s.3-1.9.8-2.5c.5-.6,1.2-.9,2.1-.9s1.3.2,1.7.7.7,1.1.7,1.9h-4.3ZM627.9,20.9h2.9c0-.4,0-.7-.1-.8-.1-.3-.3-.5-.5-.6-.2-.1-.5-.2-.7-.2-.4,0-.7.1-1,.4-.3.3-.5.7-.5,1.2Z"/><path d="M634.9,18.8v1.4c.5-.9,1.1-1.4,1.6-1.4s.5,0,.6.2.2.3.2.5,0,.3-.2.5-.3.2-.4.2-.3,0-.5-.2c-.2-.2-.3-.2-.4-.2s-.2,0-.3.1c-.2.2-.4.5-.6.9v3c0,.3,0,.6.1.8,0,.1.2.2.3.3s.4.1.6.1v.2h-3.2v-.2c.3,0,.6,0,.7-.2.1,0,.2-.2.2-.3,0,0,0-.3,0-.7v-2.4c0-.7,0-1.2,0-1.3,0-.1,0-.2-.2-.3,0,0-.2,0-.3,0s-.3,0-.5.1v-.2c0,0,1.8-.8,1.8-.8h.3Z"/><path d="M643.7,16.4v3.7h2c.5,0,.9,0,1.1-.2.2-.2.4-.6.4-1.1h.3v3.2h-.3c0-.5-.1-.7-.2-.9,0-.2-.2-.3-.4-.4s-.5-.1-.9-.1h-2v3.1c0,.4,0,.7,0,.7s0,.2.2.2.3,0,.5,0h1.6c.5,0,.9,0,1.1-.1s.5-.2.7-.4c.3-.3.6-.7.9-1.3h.3l-.8,2.3h-7.1v-.3h.3c.2,0,.4,0,.6-.2.1,0,.2-.2.3-.3,0-.1,0-.4,0-.9v-6c0-.6,0-1-.2-1.1-.2-.2-.4-.3-.8-.3h-.3v-.3h7.1v2c.1,0-.2,0-.2,0,0-.5-.2-.8-.3-1-.1-.2-.3-.3-.5-.4-.2,0-.5-.1-1-.1h-2.5Z"/><path d="M654.2,24.5c-.3.3-.6.5-.9.7s-.6.2-.9.2c-.7,0-1.3-.3-1.8-.9s-.8-1.3-.8-2.2.3-1.7.8-2.5,1.3-1.1,2.2-1.1,1,.2,1.4.5v-1.2c0-.7,0-1.2,0-1.3,0-.2,0-.3-.2-.3s-.2,0-.3,0-.3,0-.5.1v-.2c0,0,1.8-.8,1.8-.8h.3v7.2c0,.7,0,1.2,0,1.3,0,.2,0,.3.2.3,0,0,.2,0,.3,0s.3,0,.5-.1v.2c0,0-1.8.8-1.8.8h-.3v-.9ZM654.2,24v-3.2c0-.3-.1-.6-.2-.8s-.3-.4-.5-.6c-.2-.1-.4-.2-.7-.2-.4,0-.8.2-1.1.5-.4.5-.6,1.2-.6,2.1s.2,1.6.6,2.1.8.7,1.3.7.8-.2,1.2-.6Z"/><path d="M658.5,22.9c-.4-.2-.7-.4-.9-.8s-.3-.7-.3-1.1c0-.6.2-1.2.7-1.6.5-.4,1.1-.7,1.8-.7s1.1.1,1.6.4h1.3c.2,0,.3,0,.3,0s0,0,0,0c0,0,0,.1,0,.2s0,.2,0,.2c0,0,0,0,0,0,0,0-.2,0-.3,0h-.8c.3.3.4.7.4,1.3s-.2,1.1-.7,1.5-1,.6-1.8.6-.6,0-1-.1c-.2.2-.3.3-.4.5,0,.1-.1.2-.1.3s0,.2.1.2c0,0,.2.1.4.2.1,0,.4,0,1,0,.9,0,1.5,0,1.8,0,.4,0,.8.2,1,.5.3.3.4.6.4.9s-.2,1-.7,1.4c-.7.7-1.6,1-2.8,1s-1.6-.2-2.2-.6c-.3-.2-.5-.5-.5-.7s0-.2,0-.3c0-.2.2-.4.5-.7,0,0,.3-.3.7-.7-.2-.1-.4-.3-.5-.4,0-.1-.1-.2-.1-.4s0-.3.2-.6c.1-.2.4-.5.9-.9ZM658.4,25.2c-.2.2-.4.4-.5.6s-.2.4-.2.6.1.4.4.6c.5.3,1.1.4,2,.4s1.4-.1,1.8-.4c.4-.3.6-.6.6-.9s-.1-.4-.3-.5c-.2-.1-.7-.2-1.4-.2-1,0-1.8,0-2.4-.2ZM659.7,19.1c-.3,0-.6.1-.8.4s-.3.7-.3,1.2.2,1.3.5,1.7c.2.3.5.5.9.5s.6-.1.9-.4.3-.7.3-1.2-.2-1.3-.5-1.7c-.2-.3-.5-.5-.9-.5Z"/><path d="M664.9,21.3c0,.9.2,1.7.7,2.2s1,.8,1.6.8.8-.1,1.1-.3c.3-.2.6-.6.8-1.2h.2c0,.8-.4,1.3-.8,1.8s-1,.8-1.7.8-1.4-.3-1.9-.9c-.5-.6-.8-1.4-.8-2.4s.3-1.9.8-2.5c.5-.6,1.2-.9,2.1-.9s1.3.2,1.7.7.7,1.1.7,1.9h-4.3ZM664.9,20.9h2.9c0-.4,0-.7-.1-.8-.1-.3-.3-.5-.5-.6-.2-.1-.5-.2-.7-.2-.4,0-.7.1-1,.4-.3.3-.5.7-.5,1.2Z"/><path d="M678.8,25.2l-3.6-7.8v6.2c0,.6,0,.9.2,1.1.2.2.4.3.8.3h.3v.3h-3.2v-.3h.3c.4,0,.7-.1.8-.4,0-.1.2-.5.2-1v-6.1c0-.4,0-.7-.1-.9,0-.1-.2-.2-.4-.3-.2,0-.4-.1-.8-.1v-.3h2.6l3.4,7.3,3.3-7.3h2.6v.3h-.3c-.4,0-.7.1-.8.4,0,.1-.2.5-.2,1v6.1c0,.6,0,.9.2,1.1.2.2.4.3.8.3h.3v.3h-3.9v-.3h.3c.4,0,.7-.1.8-.4,0-.1.2-.5.2-1v-6.2l-3.6,7.8h-.2Z"/><path d="M689.5,24.3c-.6.5-1,.8-1.2.9-.2.1-.5.2-.8.2-.4,0-.8-.1-1.1-.4-.3-.3-.4-.7-.4-1.2s0-.6.2-.8c.2-.3.5-.6,1-.9.5-.3,1.2-.6,2.3-1v-.2c0-.6,0-1.1-.3-1.3-.2-.2-.5-.3-.9-.3s-.5,0-.7.2c-.2.2-.3.3-.3.5v.4c0,.2,0,.4-.1.5-.1.1-.2.2-.4.2s-.3,0-.4-.2c-.1-.1-.2-.3-.2-.5,0-.4.2-.8.6-1.1s1-.5,1.7-.5,1,0,1.4.3c.3.1.5.4.6.7,0,.2.1.6.1,1.2v2.1c0,.6,0,1,0,1.1s0,.2.1.3c0,0,.1,0,.2,0s.1,0,.2,0c0,0,.3-.2.6-.5v.4c-.5.7-1,1-1.5,1s-.4,0-.5-.2-.2-.4-.2-.8ZM689.5,23.9v-2.4c-.7.3-1.1.5-1.3.6-.4.2-.6.4-.8.6s-.2.5-.2.7,0,.6.3.8.4.3.7.3.8-.2,1.4-.7Z"/><path d="M696.2,18.8v2.1h-.2c-.2-.7-.4-1.1-.7-1.4-.3-.2-.6-.4-1-.4s-.6,0-.8.3-.3.4-.3.6,0,.5.2.7c.1.2.4.4.9.6l1,.5c.9.5,1.4,1,1.4,1.8s-.2,1-.6,1.4c-.4.3-.9.5-1.4.5s-.8,0-1.3-.2c-.2,0-.3,0-.4,0s-.2,0-.2.2h-.2v-2.2h.2c.1.6.4,1.1.7,1.4s.8.5,1.2.5.6,0,.8-.3c.2-.2.3-.4.3-.7s-.1-.6-.3-.8c-.2-.2-.7-.5-1.3-.8s-1.1-.6-1.3-.9c-.2-.3-.3-.6-.3-1s.2-.9.5-1.3c.4-.3.8-.5,1.4-.5s.5,0,.9.2c.2,0,.4.1.5.1s.1,0,.2,0,0-.1.1-.2h.2Z"/><path d="M699.5,15.5v6.2l1.6-1.5c.3-.3.5-.5.6-.6,0,0,0-.1,0-.2,0,0,0-.2-.1-.2,0,0-.2-.1-.4-.1v-.2h2.7v.2c-.4,0-.7,0-.9.2-.2.1-.5.3-.8.6l-1.6,1.5,1.6,2c.4.6.7.9.9,1.1.2.2.4.4.6.4.1,0,.3,0,.6,0v.2h-3v-.2c.2,0,.3,0,.4,0,0,0,0-.1,0-.2s0-.3-.3-.5l-1.9-2.5v2.1c0,.4,0,.7,0,.8,0,.1.1.2.2.3s.3,0,.7,0v.2h-3.2v-.2c.3,0,.6,0,.7-.1,0,0,.2-.1.2-.2,0-.2.1-.4.1-.8v-5.7c0-.7,0-1.2,0-1.3s0-.3-.2-.3-.2,0-.3,0-.2,0-.4.1v-.2c-.1,0,1.7-.8,1.7-.8h.3Z"/><path d="M708.7,18.8v2.1h-.2c-.2-.7-.4-1.1-.7-1.4-.3-.2-.6-.4-1-.4s-.6,0-.8.3-.3.4-.3.6,0,.5.2.7c.1.2.4.4.9.6l1,.5c.9.5,1.4,1,1.4,1.8s-.2,1-.6,1.4c-.4.3-.9.5-1.4.5s-.8,0-1.3-.2c-.2,0-.3,0-.4,0s-.2,0-.2.2h-.2v-2.2h.2c.1.6.4,1.1.7,1.4s.8.5,1.2.5.6,0,.8-.3c.2-.2.3-.4.3-.7s-.1-.6-.3-.8c-.2-.2-.7-.5-1.3-.8s-1.1-.6-1.3-.9c-.2-.3-.3-.6-.3-1s.2-.9.5-1.3c.4-.3.8-.5,1.4-.5s.5,0,.9.2c.2,0,.4.1.5.1s.1,0,.2,0,0-.1.1-.2h.2Z"/><path d="M404.5,59.4l-3.6-7.8v6.2c0,.6,0,.9.2,1.1.2.2.4.3.8.3h.3v.3h-3.2v-.3h.3c.4,0,.7-.1.8-.4.1-.1.2-.5.2-1v-6.1c0-.4,0-.7-.1-.9,0-.1-.2-.2-.4-.3s-.4-.1-.8-.1v-.3h2.6l3.4,7.3,3.3-7.3h2.6v.3h-.3c-.4,0-.7.1-.8.4-.1.1-.2.5-.2,1v6.1c0,.6,0,.9.2,1.1.2.2.4.3.8.3h.3v.3h-3.9v-.3h.3c.4,0,.7-.1.8-.4.1-.1.2-.5.2-1v-6.2l-3.6,7.8h-.2Z"/><path d="M415.2,58.5c-.6.5-1,.8-1.2.9-.2.1-.5.2-.8.2-.4,0-.8-.1-1.1-.4s-.4-.7-.4-1.2,0-.6.2-.8c.2-.3.5-.6,1-.9s1.2-.6,2.3-1v-.2c0-.6,0-1.1-.3-1.3s-.5-.3-.9-.3-.5,0-.7.2c-.2.2-.3.3-.3.5v.4c0,.2,0,.4-.1.5s-.2.2-.4.2-.3,0-.4-.2-.2-.3-.2-.5c0-.4.2-.8.6-1.1s1-.5,1.7-.5,1,0,1.4.3c.3.1.5.4.6.7,0,.2.1.6.1,1.2v2.1c0,.6,0,1,0,1.1s0,.2.1.3.1,0,.2,0,.1,0,.2,0c0,0,.3-.2.6-.5v.4c-.5.7-1,1-1.5,1s-.4,0-.5-.2-.2-.4-.2-.8ZM415.2,58v-2.4c-.7.3-1.1.5-1.3.6-.4.2-.6.4-.8.6s-.2.5-.2.7,0,.6.3.8.4.3.7.3.8-.2,1.4-.7Z"/><path d="M421.9,52.9v2.1h-.2c-.2-.7-.4-1.1-.7-1.4s-.6-.4-1-.4-.6,0-.8.3-.3.4-.3.6,0,.5.2.7c.1.2.4.4.9.6l1,.5c.9.5,1.4,1,1.4,1.8s-.2,1-.6,1.4-.9.5-1.4.5-.8,0-1.3-.2c-.2,0-.3,0-.4,0s-.2,0-.2.2h-.2v-2.2h.2c.1.6.4,1.1.7,1.4s.8.5,1.2.5.6,0,.8-.3.3-.4.3-.7-.1-.6-.3-.8-.7-.5-1.3-.8-1.1-.6-1.3-.9c-.2-.3-.3-.6-.3-1s.2-.9.5-1.3.8-.5,1.4-.5.5,0,.9.2c.2,0,.4.1.5.1s.1,0,.2,0,0-.1.1-.2h.2Z"/><path d="M425.1,49.6v6.2l1.6-1.5c.3-.3.5-.5.6-.6,0,0,0-.1,0-.2,0,0,0-.2-.1-.2s-.2-.1-.4-.1v-.2h2.7v.2c-.4,0-.7,0-.9.2s-.5.3-.8.6l-1.6,1.5,1.6,2c.4.6.7.9.9,1.1.2.2.4.4.6.4.1,0,.3,0,.6,0v.2h-3v-.2c.2,0,.3,0,.4,0s0-.1,0-.2,0-.3-.3-.5l-1.9-2.5v2.1c0,.4,0,.7,0,.8s.1.2.2.3.3,0,.7,0v.2h-3.2v-.2c.3,0,.6,0,.7-.1,0,0,.2-.1.2-.2,0-.2.1-.4.1-.8v-5.7c0-.7,0-1.2,0-1.3s0-.3-.2-.3-.2,0-.3,0-.2,0-.4.1v-.2c-.1,0,1.7-.8,1.7-.8h.3Z"/><path d="M441.2,50.1v2.2c.1,0-.2,0-.2,0,0-.4-.1-.7-.2-.8-.1-.3-.3-.5-.6-.6s-.5-.2-.9-.2h-1.3v7.1c0,.6,0,.9.2,1.1.2.2.4.3.8.3h.3v.3h-3.9v-.3h.3c.4,0,.7-.1.8-.4.1-.1.2-.5.2-1v-7.1h-1.1c-.4,0-.7,0-.9,0-.2,0-.4.3-.6.5s-.3.6-.3,1h-.3v-2.2h7.7Z"/><path d="M443.4,52.9v1.4c.5-.9,1.1-1.4,1.6-1.4s.5,0,.6.2.2.3.2.5,0,.3-.2.5-.3.2-.4.2-.3,0-.5-.2-.3-.2-.4-.2-.2,0-.3.1c-.2.2-.4.5-.6.9v3c0,.3,0,.6.1.8,0,.1.2.2.3.3s.4.1.6.1v.2h-3.2v-.2c.3,0,.6,0,.7-.2.1,0,.2-.2.2-.3,0,0,0-.3,0-.7v-2.4c0-.7,0-1.2,0-1.3s0-.2-.2-.3-.2,0-.3,0-.3,0-.5.1v-.2c0,0,1.8-.8,1.8-.8h.3Z"/><path d="M449.8,58.5c-.6.5-1,.8-1.2.9-.2.1-.5.2-.8.2-.4,0-.8-.1-1.1-.4s-.4-.7-.4-1.2,0-.6.2-.8c.2-.3.5-.6,1-.9s1.2-.6,2.3-1v-.2c0-.6,0-1.1-.3-1.3s-.5-.3-.9-.3-.5,0-.7.2c-.2.2-.3.3-.3.5v.4c0,.2,0,.4-.1.5s-.2.2-.4.2-.3,0-.4-.2-.2-.3-.2-.5c0-.4.2-.8.6-1.1s1-.5,1.7-.5,1,0,1.4.3c.3.1.5.4.6.7,0,.2.1.6.1,1.2v2.1c0,.6,0,1,0,1.1s0,.2.1.3.1,0,.2,0,.1,0,.2,0c0,0,.3-.2.6-.5v.4c-.5.7-1,1-1.5,1s-.4,0-.5-.2-.2-.4-.2-.8ZM449.8,58v-2.4c-.7.3-1.1.5-1.3.6-.4.2-.6.4-.8.6s-.2.5-.2.7,0,.6.3.8.4.3.7.3.8-.2,1.4-.7Z"/><path d="M454.3,54.2c.7-.9,1.4-1.3,2.1-1.3s.6,0,.9.3.4.5.6.8c.1.3.2.7.2,1.3v2.7c0,.4,0,.7,0,.8,0,.1.1.2.2.3s.3,0,.6,0v.2h-3.1v-.2h.1c.3,0,.5,0,.6-.1s.2-.2.2-.4c0,0,0-.3,0-.6v-2.6c0-.6,0-1-.2-1.2s-.4-.4-.7-.4c-.5,0-1.1.3-1.6.9v3.3c0,.4,0,.7,0,.8,0,.1.2.2.3.3s.3,0,.7,0v.2h-3.1v-.2h.1c.3,0,.5,0,.6-.2s.2-.5.2-.9v-2.3c0-.8,0-1.2,0-1.4s0-.3-.2-.3-.2,0-.3,0-.3,0-.5.1v-.2c-.1,0,1.8-.8,1.8-.8h.3v1.3Z"/><path d="M463.5,52.9v2.1h-.2c-.2-.7-.4-1.1-.7-1.4s-.6-.4-1-.4-.6,0-.8.3-.3.4-.3.6,0,.5.2.7c.1.2.4.4.9.6l1,.5c.9.5,1.4,1,1.4,1.8s-.2,1-.6,1.4-.9.5-1.4.5-.8,0-1.3-.2c-.2,0-.3,0-.4,0s-.2,0-.2.2h-.2v-2.2h.2c.1.6.4,1.1.7,1.4s.8.5,1.2.5.6,0,.8-.3.3-.4.3-.7-.1-.6-.3-.8-.7-.5-1.3-.8-1.1-.6-1.3-.9c-.2-.3-.3-.6-.3-1s.2-.9.5-1.3.8-.5,1.4-.5.5,0,.9.2c.2,0,.4.1.5.1s.1,0,.2,0,0-.1.1-.2h.2Z"/><path d="M467.4,53.6v4.1c0,.6,0,1,.2,1.1.2.2.4.3.7.3h.6v.2h-3.7v-.2h.3c.2,0,.3,0,.5-.1s.3-.2.3-.4,0-.5,0-.9v-4.1h-1.2v-.5h1.2v-.4c0-.6.1-1.2.3-1.6s.5-.8.9-1,.9-.4,1.4-.4.9.2,1.3.5c.3.2.4.4.4.7s0,.3-.2.4-.2.2-.4.2-.2,0-.3-.1-.3-.2-.4-.5-.3-.4-.5-.5-.3-.1-.5-.1-.4,0-.5.2-.3.3-.3.5,0,.8,0,1.8v.5h1.6v.5h-1.6Z"/><path d="M472.6,52.9c.9,0,1.7.4,2.3,1.1.5.6.7,1.3.7,2.1s-.1,1.1-.4,1.7-.6,1-1.1,1.3-1,.4-1.6.4c-.9,0-1.7-.4-2.2-1.1-.5-.6-.7-1.3-.7-2.1s.1-1.1.4-1.7.7-1,1.1-1.3,1-.4,1.5-.4ZM472.4,53.4c-.2,0-.5,0-.7.2s-.4.4-.6.8-.2.8-.2,1.4c0,.9.2,1.7.5,2.4s.8,1,1.4,1,.8-.2,1.1-.5.4-1,.4-1.9-.2-2-.7-2.6c-.3-.4-.7-.7-1.2-.7Z"/><path d="M478.4,52.9v1.4c.5-.9,1.1-1.4,1.6-1.4s.5,0,.6.2.2.3.2.5,0,.3-.2.5-.3.2-.4.2-.3,0-.5-.2-.3-.2-.4-.2-.2,0-.3.1c-.2.2-.4.5-.6.9v3c0,.3,0,.6.1.8,0,.1.2.2.3.3s.4.1.6.1v.2h-3.2v-.2c.3,0,.6,0,.7-.2.1,0,.2-.2.2-.3,0,0,0-.3,0-.7v-2.4c0-.7,0-1.2,0-1.3s0-.2-.2-.3-.2,0-.3,0-.3,0-.5.1v-.2c0,0,1.8-.8,1.8-.8h.3Z"/><path d="M483.1,54.3c.5-.5.7-.7.8-.8.2-.2.4-.3.7-.4s.5-.1.7-.1c.4,0,.7.1,1,.3s.5.6.6,1c.5-.5.9-.9,1.2-1.1s.7-.3,1-.3.6,0,.9.3.5.5.6.8c.1.3.2.7.2,1.2v2.7c0,.4,0,.7,0,.8,0,.1.1.2.3.3s.3.1.6.1v.2h-3.1v-.2h.1c.3,0,.5,0,.6-.2.1,0,.2-.2.2-.3,0,0,0-.3,0-.7v-2.7c0-.5,0-.9-.2-1.1-.2-.3-.5-.4-.9-.4s-.5,0-.7.2-.5.3-.9.7h0c0,0,0,.4,0,.4v3c0,.4,0,.7,0,.8s.1.2.3.3.4.1.7.1v.2h-3.2v-.2c.3,0,.6,0,.7-.1s.2-.2.3-.4c0,0,0-.3,0-.7v-2.7c0-.5,0-.9-.2-1.1-.2-.3-.5-.4-.8-.4s-.5,0-.7.2c-.4.2-.7.4-.9.7v3.4c0,.4,0,.7,0,.8s.1.2.3.3.3,0,.7,0v.2h-3.1v-.2c.3,0,.5,0,.6,0s.2-.2.3-.3,0-.4,0-.8v-2.4c0-.7,0-1.1,0-1.3,0-.2,0-.3-.2-.3s-.2,0-.3,0-.3,0-.5.1v-.2c-.1,0,1.8-.8,1.8-.8h.3v1.3Z"/><path d="M495.7,58.5c-.6.5-1,.8-1.2.9-.2.1-.5.2-.8.2-.4,0-.8-.1-1.1-.4s-.4-.7-.4-1.2,0-.6.2-.8c.2-.3.5-.6,1-.9s1.2-.6,2.3-1v-.2c0-.6,0-1.1-.3-1.3s-.5-.3-.9-.3-.5,0-.7.2c-.2.2-.3.3-.3.5v.4c0,.2,0,.4-.1.5s-.2.2-.4.2-.3,0-.4-.2-.2-.3-.2-.5c0-.4.2-.8.6-1.1s1-.5,1.7-.5,1,0,1.4.3c.3.1.5.4.6.7,0,.2.1.6.1,1.2v2.1c0,.6,0,1,0,1.1s0,.2.1.3.1,0,.2,0,.1,0,.2,0c0,0,.3-.2.6-.5v.4c-.5.7-1,1-1.5,1s-.4,0-.5-.2-.2-.4-.2-.8ZM495.7,58v-2.4c-.7.3-1.1.5-1.3.6-.4.2-.6.4-.8.6s-.2.5-.2.7,0,.6.3.8.4.3.7.3.8-.2,1.4-.7Z"/><path d="M500.2,51.1v2.1h1.5v.5h-1.5v4.1c0,.4,0,.7.2.8s.3.2.4.2.3,0,.4-.1.3-.2.3-.4h.3c-.2.4-.4.8-.7,1s-.6.3-.9.3-.4,0-.6-.2-.3-.3-.4-.5-.1-.6-.1-1v-4.2h-1v-.2c.3-.1.5-.3.8-.5s.5-.5.7-.9c.1-.2.3-.5.4-1h.2Z"/><path d="M504.4,52.9v5c0,.4,0,.7,0,.8s.1.2.3.3.3,0,.6,0v.2h-3v-.2c.3,0,.5,0,.6,0s.2-.2.2-.3,0-.4,0-.8v-2.4c0-.7,0-1.1,0-1.3,0-.1,0-.2-.2-.3s-.2,0-.3,0-.3,0-.5.1v-.2c0,0,1.8-.8,1.8-.8h.3ZM503.8,49.6c.2,0,.4,0,.5.2s.2.3.2.5,0,.4-.2.5-.3.2-.5.2-.4,0-.5-.2-.2-.3-.2-.5,0-.4.2-.5.3-.2.5-.2Z"/><path d="M509.2,52.9c.9,0,1.7.4,2.3,1.1.5.6.7,1.3.7,2.1s-.1,1.1-.4,1.7-.6,1-1.1,1.3-1,.4-1.6.4c-.9,0-1.7-.4-2.2-1.1-.5-.6-.7-1.3-.7-2.1s.1-1.1.4-1.7.7-1,1.1-1.3,1-.4,1.5-.4ZM509,53.4c-.2,0-.5,0-.7.2s-.4.4-.6.8-.2.8-.2,1.4c0,.9.2,1.7.5,2.4s.8,1,1.4,1,.8-.2,1.1-.5.4-1,.4-1.9-.2-2-.7-2.6c-.3-.4-.7-.7-1.2-.7Z"/><path d="M515,54.2c.7-.9,1.4-1.3,2.1-1.3s.6,0,.9.3.4.5.6.8c.1.3.2.7.2,1.3v2.7c0,.4,0,.7,0,.8,0,.1.1.2.2.3s.3,0,.6,0v.2h-3.1v-.2h.1c.3,0,.5,0,.6-.1s.2-.2.2-.4c0,0,0-.3,0-.6v-2.6c0-.6,0-1-.2-1.2s-.4-.4-.7-.4c-.5,0-1.1.3-1.6.9v3.3c0,.4,0,.7,0,.8,0,.1.2.2.3.3s.3,0,.7,0v.2h-3.1v-.2h.1c.3,0,.5,0,.6-.2s.2-.5.2-.9v-2.3c0-.8,0-1.2,0-1.4s0-.3-.2-.3-.2,0-.3,0-.3,0-.5.1v-.2c-.1,0,1.8-.8,1.8-.8h.3v1.3Z"/><line class="cls-11" x1="355.3" y1="103.8" x2="380.5" y2="103.8"/><polygon points="378.3 111.3 391.3 103.8 378.3 96.3 378.3 111.3"/><line class="cls-11" x1="525.1" y1="103.8" x2="551.6" y2="103.8"/><polygon points="549.4 111.3 562.3 103.8 549.4 96.3 549.4 111.3"/><line class="cls-11" x1="752" y1="104.2" x2="780.5" y2="104.2"/><polygon points="778.3 111.7 791.3 104.2 778.3 96.8 778.3 111.7"/><line class="cls-11" x1="834.8" y1="201" x2="834.8" y2="232.8"/><line class="cls-11" x1="835.5" y1="232.8" x2="250.4" y2="232.8"/><line class="cls-11" x1="251.3" y1="233.7" x2="251.3" y2="219.6"/><polygon points="258.8 221.8 251.3 208.9 243.8 221.8 258.8 221.8"/><line class="cls-6" x1="132.3" y1="1.1" x2="132.3" y2="232.8"/><line class="cls-6" x1="892.7" y1="1.7" x2="892.7" y2="233.3"/><path d="M38.9,54.8c-.6,0-1,.4-1,.9,0,.3.2.4.4.5.1,0,.4.3.4.5s-.2.6-.7.6-.8-.3-.8-1,.4-1.5.7-1.7c.4-.4.8-.9,2.1-.9,1.8,0,2.1,0,2.3,0s.4.1.2.3c-.4.5-2.1,2.9-2.1,4.7s.6,1.7,1.3,1.7c1.5,0,3.1-2.4,3.1-4.2s0-.6-.1-.9c-.1-.3-.3-.5-.3-.7,0-.5.3-.8.8-.8s.7.5.7,1c0,.9-.4,2.7-1.2,4-.8,1.4-2.3,2.7-3.7,2.7s-1.8-.6-1.8-1.9,1.5-3.9,2.5-5.1h-.1c-.4.3-1.3.4-1.7.4h-.9Z"/><path d="M51.6,58.1c0,2.4-1.6,5.1-3.6,5.1s-1.9-.9-1.9-2.1c0-2.1,1.6-5,3.7-5s1.8.8,1.8,1.9ZM47.1,61.4c0,.9.5,1.3.8,1.3,1.5,0,2.7-3.3,2.7-5s-.4-1.1-.9-1.1c-1.4,0-2.6,3.2-2.6,4.8Z"/><path d="M37.2,118.6c-.6,0-1,.4-1,.9,0,.3.2.4.4.5.1,0,.4.3.4.5s-.2.6-.7.6-.8-.3-.8-1,.4-1.5.7-1.7c.4-.4.8-.9,2.1-.9,1.8,0,2.1,0,2.3,0s.4.1.2.3c-.4.5-2.1,2.9-2.1,4.7s.6,1.7,1.3,1.7c1.5,0,3.1-2.4,3.1-4.2s0-.6-.1-.9c-.1-.3-.3-.5-.3-.7,0-.5.3-.8.8-.8s.7.5.7,1c0,.9-.4,2.7-1.2,4-.8,1.4-2.3,2.7-3.7,2.7s-1.8-.6-1.8-1.9,1.5-3.9,2.5-5.1h-.1c-.4.3-1.3.4-1.7.4h-.9Z"/><path d="M44.9,126.4c.4,0,.6,0,.9-.5,0-.1.2-.4.4-1.2l.8-2.4c.2-.6.3-1,.3-1s0-.1-.1-.1-.4,0-.7.2l-.6.2c0,0,0,0-.1,0v-.2c-.1,0-.1,0,0-.1l2.6-1.3c.2,0,.3-.1.4-.1s.2,0,.2.1,0,.1,0,.3c-.2.6-.7,1.8-1,2.7l-.5,1.6c-.2.7-.3,1.1-.4,1.2-.1.4,0,.6.3.6h.5c0,0,.1,0,0,0v.3c0,0-.1,0-.2,0s-1.5,0-1.7,0-1.6,0-1.7,0,0,0,0,0v-.3c0,0,.1,0,.2,0h.6Z"/><path d="M2.6,167.7c-.6,0-1,.4-1,.9,0,.3.2.4.4.5.1,0,.4.3.4.5s-.2.6-.7.6-.8-.3-.8-1,.4-1.5.7-1.7c.4-.4.8-.9,2.1-.9,1.8,0,2.1,0,2.3,0s.4.1.2.3c-.4.5-2.1,2.9-2.1,4.7s.6,1.7,1.3,1.7c1.5,0,3.1-2.4,3.1-4.2s0-.6-.1-.9c-.1-.3-.3-.5-.3-.7,0-.5.3-.8.8-.8s.7.5.7,1c0,.9-.4,2.7-1.2,4-.8,1.4-2.3,2.7-3.7,2.7s-1.8-.6-1.8-1.9,1.5-3.9,2.5-5.1h-.1c-.4.3-1.3.4-1.7.4h-.9Z"/><path d="M12.7,175.1c.6,0,.9-.3,1.2-.8,0,0,.1,0,.2,0h.1c0,.1,0,.2,0,.2-.3.4-.7,1.4-.7,1.5,0,0,0,.1-.2.1s-.1,0-.2-.1c0,0-.3,0-.7,0h-2.9c-.2,0-.2,0-.2-.1s0-.2.1-.2c1.4-1.1,4.2-3,4.2-4.7s-.3-1.2-1-1.2-1.2.8-1.4,1.1c0,.1-.1.2-.2.1h-.2c0-.1,0-.2,0-.3.2-.5,1-1.7,2.3-1.7s1.7.7,1.7,1.6c0,1.9-2.7,3.6-4.1,4.5h0s2,0,2,0Z"/><path d="M79.3,167.7c-.6,0-1,.4-1,.9,0,.3.2.4.4.5.1,0,.4.3.4.5s-.2.6-.7.6-.8-.3-.8-1,.4-1.5.7-1.7c.4-.4.8-.9,2.1-.9,1.8,0,2.1,0,2.3,0s.4.1.2.3c-.4.5-2.1,2.9-2.1,4.7s.6,1.7,1.3,1.7c1.5,0,3.1-2.4,3.1-4.2s0-.6-.1-.9c-.1-.3-.3-.5-.3-.7,0-.5.3-.8.8-.8s.7.5.7,1c0,.9-.4,2.7-1.2,4-.8,1.4-2.3,2.7-3.7,2.7s-1.8-.6-1.8-1.9,1.5-3.9,2.5-5.1h-.1c-.4.3-1.3.4-1.7.4h-.9Z"/><path d="M86.3,174.8c0-.2.2-.5.5-.5s.5.4.5.7c0,.2.3.5.8.5,1,0,1.9-.9,1.9-2s-.3-1-.8-1.2c-.2,0-.2-.1-.2-.2s0-.1.2-.2c.5-.1,1.5-.6,1.5-1.5s-.2-.8-.9-.8-.9.5-1.2.8c-.1.2-.2.2-.3.2h-.2c0-.2,0-.3,0-.3.3-.4.9-1.3,2.1-1.3s1.5.6,1.5,1c0,.8-.7,1.5-1.6,1.9.7.4,1,.9,1,1.5,0,1.5-1.6,2.6-3.1,2.6s-1.7-.6-1.7-1.2Z"/><path d="M39.7,32.6v.3h-4v-.3h.3c.4,0,.7-.1.8-.3.1-.1.2-.5.2-1.1v-6c0-.5,0-.8,0-.9,0-.1-.1-.2-.3-.3-.2-.1-.4-.2-.6-.2h-.3v-.3h4v.3h-.3c-.4,0-.7.1-.8.3-.1.1-.2.5-.2,1.1v6c0,.5,0,.8,0,.9,0,.1.1.2.3.3.2.1.4.2.6.2h.3Z"/><path d="M42.3,27.7c.7-.9,1.4-1.3,2.1-1.3s.6,0,.9.3.4.5.6.8c.1.3.2.7.2,1.3v2.7c0,.4,0,.7,0,.8,0,.1.1.2.2.3s.3,0,.6,0v.2h-3.1v-.2h.1c.3,0,.5,0,.6-.1s.2-.2.2-.4c0,0,0-.3,0-.6v-2.6c0-.6,0-1-.2-1.2s-.4-.4-.7-.4c-.5,0-1.1.3-1.6.9v3.3c0,.4,0,.7,0,.8,0,.1.2.2.3.3s.3,0,.7,0v.2h-3.1v-.2h.1c.3,0,.5,0,.6-.2s.2-.5.2-.9v-2.3c0-.8,0-1.2,0-1.4s0-.3-.2-.3-.2,0-.3,0-.3,0-.5.1v-.2c-.1,0,1.8-.8,1.8-.8h.3v1.3Z"/><path d="M47.1,27.2l1.9-.8h.3v1.5c.3-.6.6-.9,1-1.2s.7-.3,1-.3c.6,0,1.2.2,1.6.7.5.6.8,1.4.8,2.4s-.3,2-.9,2.7c-.5.6-1.2.9-1.9.9s-.6,0-.9-.1c-.2,0-.4-.2-.6-.4v1.9c0,.4,0,.7,0,.8s.1.2.3.3.4.1.7.1v.3h-3.3v-.3h.2c.3,0,.5,0,.6-.1,0,0,.2-.1.2-.2s0-.4,0-.9v-5.9c0-.4,0-.7,0-.8s0-.2-.2-.2-.2,0-.3,0-.2,0-.4,0v-.2ZM49.3,28.3v2.3c0,.5,0,.8,0,1,0,.3.2.5.5.7s.6.3.9.3.8-.2,1.1-.5c.4-.5.6-1.1.6-2s-.2-1.7-.6-2.2c-.3-.4-.6-.5-1-.5s-.4,0-.6.2c-.2,0-.4.3-.8.7Z"/><path d="M60,26.6v3.8c0,.7,0,1.2,0,1.3s0,.3.2.3.2,0,.3,0,.3,0,.5-.1v.2c0,0-1.8.8-1.8.8h-.3v-1.3c-.5.6-.9,1-1.2,1.1s-.6.2-.9.2-.7-.1-.9-.3-.4-.5-.5-.8-.2-.8-.2-1.4v-2.8c0-.3,0-.5,0-.6s-.2-.2-.3-.3-.4,0-.7,0v-.3h2.2v4.2c0,.6.1,1,.3,1.1s.4.3.7.3.4,0,.7-.2.5-.4.9-.7v-3.5c0-.4,0-.6-.2-.7s-.4-.2-.8-.2v-.3h2.1Z"/><path d="M63.3,24.5v2.1h1.5v.5h-1.5v4.1c0,.4,0,.7.2.8s.3.2.4.2.3,0,.4-.1.3-.2.3-.4h.3c-.2.4-.4.8-.7,1s-.6.3-.9.3-.4,0-.6-.2-.3-.3-.4-.5-.1-.6-.1-1v-4.2h-1v-.2c.3-.1.5-.3.8-.5s.5-.5.7-.9c.1-.2.3-.5.4-1h.2Z"/><path d="M77.1,23.4l.2,2.9h-.2c-.2-.7-.6-1.3-.9-1.6-.6-.5-1.3-.8-2.1-.8s-2.1.5-2.7,1.4c-.5.8-.8,1.7-.8,2.8s.2,1.7.5,2.4.8,1.3,1.3,1.6,1.1.5,1.7.5.7,0,1-.1.6-.2.9-.4v-2.7c0-.5,0-.8-.1-.9s-.2-.3-.3-.3-.4-.1-.8-.1v-.3h3.6v.3h-.2c-.4,0-.6.1-.7.4,0,.2-.1.5-.1,1v2.8c-.5.3-1,.5-1.6.6s-1.1.2-1.7.2c-1.8,0-3.2-.6-4.1-1.7s-1-1.9-1-3,.2-1.6.6-2.3c.5-.9,1.1-1.6,1.9-2.1.7-.4,1.5-.6,2.4-.6s.6,0,.9,0,.7.2,1.2.4c.3,0,.4.1.5.1s.2,0,.2-.1,0-.2.1-.5h.3Z"/><path d="M80.9,26.4v1.4c.5-.9,1.1-1.4,1.6-1.4s.5,0,.6.2.2.3.2.5,0,.3-.2.5-.3.2-.4.2-.3,0-.5-.2-.3-.2-.4-.2-.2,0-.3.1c-.2.2-.4.5-.6.9v3c0,.3,0,.6.1.8,0,.1.2.2.3.3s.4.1.6.1v.2h-3.2v-.2c.3,0,.6,0,.7-.2.1,0,.2-.2.2-.3,0,0,0-.3,0-.7v-2.4c0-.7,0-1.2,0-1.3s0-.2-.2-.3-.2,0-.3,0-.3,0-.5.1v-.2c0,0,1.8-.8,1.8-.8h.3Z"/><path d="M87.2,32c-.6.5-1,.8-1.2.9-.2.1-.5.2-.8.2-.4,0-.8-.1-1.1-.4s-.4-.7-.4-1.2,0-.6.2-.8c.2-.3.5-.6,1-.9s1.2-.6,2.3-1v-.2c0-.6,0-1.1-.3-1.3s-.5-.3-.9-.3-.5,0-.7.2c-.2.2-.3.3-.3.5v.4c0,.2,0,.4-.1.5s-.2.2-.4.2-.3,0-.4-.2-.2-.3-.2-.5c0-.4.2-.8.6-1.1s1-.5,1.7-.5,1,0,1.4.3c.3.1.5.4.6.7,0,.2.1.6.1,1.2v2.1c0,.6,0,1,0,1.1s0,.2.1.3.1,0,.2,0,.1,0,.2,0c0,0,.3-.2.6-.5v.4c-.5.7-1,1-1.5,1s-.4,0-.5-.2-.2-.4-.2-.8ZM87.2,31.5v-2.4c-.7.3-1.1.5-1.3.6-.4.2-.6.4-.8.6s-.2.5-.2.7,0,.6.3.8.4.3.7.3.8-.2,1.4-.7Z"/><path d="M89.4,27.2l1.9-.8h.3v1.5c.3-.6.6-.9,1-1.2s.7-.3,1-.3c.6,0,1.2.2,1.6.7.5.6.8,1.4.8,2.4s-.3,2-.9,2.7c-.5.6-1.2.9-1.9.9s-.6,0-.9-.1c-.2,0-.4-.2-.6-.4v1.9c0,.4,0,.7,0,.8s.1.2.3.3.4.1.7.1v.3h-3.3v-.3h.2c.3,0,.5,0,.6-.1,0,0,.2-.1.2-.2s0-.4,0-.9v-5.9c0-.4,0-.7,0-.8s0-.2-.2-.2-.2,0-.3,0-.2,0-.4,0v-.2ZM91.6,28.3v2.3c0,.5,0,.8,0,1,0,.3.2.5.5.7s.6.3.9.3.8-.2,1.1-.5c.4-.5.6-1.1.6-2s-.2-1.7-.6-2.2c-.3-.4-.6-.5-1-.5s-.4,0-.6.2c-.2,0-.4.3-.8.7Z"/><path d="M98.7,23.1v4.6c.5-.6.9-.9,1.2-1.1s.6-.2.9-.2.7,0,.9.3.4.5.6.9c0,.3.1.8.1,1.6v2.2c0,.4,0,.7,0,.8,0,.1.1.2.2.3s.3,0,.6,0v.2h-3.1v-.2h.1c.3,0,.5,0,.6-.1s.2-.2.2-.4c0,0,0-.3,0-.6v-2.2c0-.7,0-1.1-.1-1.3s-.2-.4-.3-.5-.3-.2-.6-.2-.5,0-.7.2-.5.4-.9.7v3.3c0,.4,0,.7,0,.8s.1.2.3.3.4.1.7.1v.2h-3.1v-.2c.3,0,.5,0,.7-.1,0,0,.2-.1.2-.3s0-.4,0-.8v-5.7c0-.7,0-1.2,0-1.3s0-.3-.2-.3-.2,0-.3,0-.3,0-.5.1v-.2c0,0,1.8-.8,1.8-.8h.3Z"/><line class="cls-7" x1="931.2" y1="186" x2="1009.2" y2="186"/><line class="cls-7" x1="972.2" y1="119" x2="1009.2" y2="186"/><line class="cls-7" x1="972.7" y1="119.5" x2="931.7" y2="185.5"/><line class="cls-7" x1="972.2" y1="54" x2="972.2" y2="120"/><circle class="cls-13" cx="972.2" cy="60" r="12.5"/><circle class="cls-19" cx="972.2" cy="125" r="12.5"/><circle class="cls-13" cx="932.2" cy="185" r="12.5"/><circle class="cls-13" cx="1009.2" cy="186" r="12.5"/><path d="M941.7,56.2c-.6,0-1,.4-1,.9,0,.3.2.4.4.5.1,0,.4.3.4.5s-.2.6-.7.6-.8-.3-.8-1,.4-1.5.7-1.7c.4-.4.8-.9,2.1-.9,1.8,0,2.1,0,2.3,0s.4.1.2.3c-.4.5-2.1,2.9-2.1,4.7s.6,1.7,1.3,1.7c1.5,0,3.1-2.4,3.1-4.2s0-.6-.1-.9c-.1-.3-.3-.5-.3-.7,0-.5.3-.8.8-.8s.7.5.7,1c0,.9-.4,2.7-1.2,4-.8,1.4-2.3,2.7-3.7,2.7s-1.8-.6-1.8-1.9,1.5-3.9,2.5-5.1h-.1c-.4.3-1.3.4-1.7.4h-.9Z"/><path d="M954.4,59.4c0,2.4-1.6,5.1-3.6,5.1s-1.9-.9-1.9-2.1c0-2.1,1.6-5,3.7-5s1.8.8,1.8,1.9ZM949.9,62.8c0,.9.5,1.3.8,1.3,1.5,0,2.7-3.3,2.7-5s-.4-1.1-.9-1.1c-1.4,0-2.6,3.2-2.6,4.8Z"/><path d="M940,119.9c-.6,0-1,.4-1,.9,0,.3.2.4.4.5.1,0,.4.3.4.5s-.2.6-.7.6-.8-.3-.8-1,.4-1.5.7-1.7c.4-.4.8-.9,2.1-.9,1.8,0,2.1,0,2.3,0s.4.1.2.3c-.4.5-2.1,2.9-2.1,4.7s.6,1.7,1.3,1.7c1.5,0,3.1-2.4,3.1-4.2s0-.6-.1-.9c-.1-.3-.3-.5-.3-.7,0-.5.3-.8.8-.8s.7.5.7,1c0,.9-.4,2.7-1.2,4-.8,1.4-2.3,2.7-3.7,2.7s-1.8-.6-1.8-1.9,1.5-3.9,2.5-5.1h-.1c-.4.3-1.3.4-1.7.4h-.9Z"/><path d="M947.7,127.8c.4,0,.6,0,.9-.5,0-.1.2-.4.4-1.2l.8-2.4c.2-.6.3-1,.3-1s0-.1-.1-.1-.4,0-.7.2l-.6.2c0,0,0,0-.1,0v-.2c-.1,0-.1,0,0-.1l2.6-1.3c.2,0,.3-.1.4-.1s.2,0,.2.1,0,.1,0,.3c-.2.6-.7,1.8-1,2.7l-.5,1.6c-.2.7-.3,1.1-.4,1.2-.1.4,0,.6.3.6h.5c0,0,.1,0,0,0v.3c0,0-.1,0-.2,0s-1.5,0-1.7,0-1.6,0-1.7,0,0,0,0,0v-.3c0,0,.1,0,.2,0h.6Z"/><path d="M905.4,169c-.6,0-1,.4-1,.9,0,.3.2.4.4.5.1,0,.4.3.4.5s-.2.6-.7.6-.8-.3-.8-1,.4-1.5.7-1.7c.4-.4.8-.9,2.1-.9,1.8,0,2.1,0,2.3,0s.4.1.2.3c-.4.5-2.1,2.9-2.1,4.7s.6,1.7,1.3,1.7c1.5,0,3.1-2.4,3.1-4.2s0-.6-.1-.9c-.1-.3-.3-.5-.3-.7,0-.5.3-.8.8-.8s.7.5.7,1c0,.9-.4,2.7-1.2,4-.8,1.4-2.3,2.7-3.7,2.7s-1.8-.6-1.8-1.9,1.5-3.9,2.5-5.1h-.1c-.4.3-1.3.4-1.7.4h-.9Z"/><path d="M915.5,176.5c.6,0,.9-.3,1.2-.8,0,0,.1,0,.2,0h.1c0,.1,0,.2,0,.2-.3.4-.7,1.4-.7,1.5,0,0,0,.1-.2.1s-.1,0-.2-.1c0,0-.3,0-.7,0h-2.9c-.2,0-.2,0-.2-.1s0-.2.1-.2c1.4-1.1,4.2-3,4.2-4.7s-.3-1.2-1-1.2-1.2.8-1.4,1.1c0,.1-.1.2-.2.1h-.2c0-.1,0-.2,0-.3.2-.5,1-1.7,2.3-1.7s1.7.7,1.7,1.6c0,1.9-2.7,3.6-4.1,4.5h0s2,0,2,0Z"/><path d="M982.1,169c-.6,0-1,.4-1,.9,0,.3.2.4.4.5.1,0,.4.3.4.5s-.2.6-.7.6-.8-.3-.8-1,.5-1.5.7-1.7c.4-.4.8-.9,2.1-.9,1.8,0,2.1,0,2.3,0s.4.1.2.3c-.4.5-2.1,2.9-2.1,4.7s.6,1.7,1.3,1.7c1.5,0,3.1-2.4,3.1-4.2s0-.6-.1-.9c-.1-.3-.3-.5-.3-.7,0-.5.3-.8.8-.8s.7.5.7,1c0,.9-.4,2.7-1.2,4-.8,1.4-2.3,2.7-3.7,2.7s-1.8-.6-1.8-1.9,1.5-3.9,2.5-5.1h-.1c-.4.3-1.3.4-1.7.4h-.9Z"/><path d="M989.1,176.2c0-.2.2-.5.5-.5.4,0,.5.4.5.7,0,.2.3.5.8.5,1,0,1.9-.9,1.9-2s-.3-1-.8-1.2c-.2,0-.2-.1-.2-.2s0-.1.2-.2c.5-.1,1.5-.6,1.5-1.5s-.2-.8-.9-.8-.9.5-1.2.8c-.1.2-.2.2-.3.2h-.2c0-.2,0-.3,0-.3.3-.4.9-1.3,2.1-1.3s1.5.6,1.5,1c0,.8-.7,1.5-1.6,1.9.7.4,1,.9,1,1.5,0,1.5-1.6,2.6-3.1,2.6s-1.7-.6-1.7-1.2Z"/><path d="M920.3,24.8c1.2,0,2.2.5,3.1,1.4s1.3,2.1,1.3,3.4-.4,2.6-1.3,3.5-2,1.4-3.2,1.4-2.3-.5-3.2-1.4-1.3-2.1-1.3-3.5.5-2.7,1.5-3.6c.9-.8,1.9-1.2,3.1-1.2ZM920.2,25.3c-.8,0-1.5.3-2,.9-.6.8-.9,1.9-.9,3.4s.3,2.7,1,3.5c.5.6,1.2.9,2,.9s1.6-.3,2.2-1,.9-1.8.9-3.2-.3-2.8-.9-3.5c-.5-.6-1.2-.9-2.1-.9Z"/><path d="M931.3,28v3.8c0,.7,0,1.2,0,1.3s0,.3.2.3.2,0,.3,0c.1,0,.3,0,.5-.1v.2c0,0-1.8.8-1.8.8h-.3v-1.3c-.5.6-.9,1-1.2,1.1-.3.2-.6.2-.9.2s-.7-.1-.9-.3c-.3-.2-.4-.5-.5-.8,0-.3-.2-.8-.2-1.4v-2.8c0-.3,0-.5,0-.6,0-.1-.2-.2-.3-.3-.1,0-.4,0-.7,0v-.3h2.2v4.2c0,.6.1,1,.3,1.1.2.2.4.3.7.3s.4,0,.7-.2c.2-.1.5-.4.9-.7v-3.5c0-.4,0-.6-.2-.7s-.4-.2-.8-.2v-.3h2.1Z"/><path d="M934.6,25.9v2.1h1.5v.5h-1.5v4.1c0,.4,0,.7.2.8s.3.2.4.2.3,0,.4-.1c.1,0,.3-.2.3-.4h.3c-.2.4-.4.8-.7,1-.3.2-.6.3-.9.3s-.4,0-.6-.2c-.2-.1-.3-.3-.4-.5s-.1-.6-.1-1v-4.2h-1v-.2c.3-.1.5-.3.8-.5.3-.2.5-.5.7-.9.1-.2.3-.5.4-1h.2Z"/><path d="M936.2,28.6l1.9-.8h.3v1.5c.3-.6.6-.9,1-1.2.3-.2.7-.3,1-.3.6,0,1.2.2,1.6.7.5.6.8,1.4.8,2.4s-.3,2-.9,2.7c-.5.6-1.2.9-1.9.9s-.6,0-.9-.1c-.2,0-.4-.2-.6-.4v1.9c0,.4,0,.7,0,.8,0,.1.1.2.3.3s.4.1.7.1v.3h-3.3v-.3h.2c.3,0,.5,0,.6-.1,0,0,.2-.1.2-.2s0-.4,0-.9v-5.9c0-.4,0-.7,0-.8,0-.1,0-.2-.2-.2,0,0-.2,0-.3,0s-.2,0-.4,0v-.2ZM938.4,29.7v2.3c0,.5,0,.8,0,1,0,.3.2.5.5.7.2.2.6.3.9.3s.8-.2,1.1-.5c.4-.5.6-1.1.6-2s-.2-1.7-.6-2.2c-.3-.4-.6-.5-1-.5s-.4,0-.6.2c-.2,0-.4.3-.8.7Z"/><path d="M949.2,28v3.8c0,.7,0,1.2,0,1.3s0,.3.2.3.2,0,.3,0c.1,0,.3,0,.5-.1v.2c0,0-1.8.8-1.8.8h-.3v-1.3c-.5.6-.9,1-1.2,1.1-.3.2-.6.2-.9.2s-.7-.1-.9-.3c-.3-.2-.4-.5-.5-.8,0-.3-.2-.8-.2-1.4v-2.8c0-.3,0-.5,0-.6,0-.1-.2-.2-.3-.3-.1,0-.4,0-.7,0v-.3h2.2v4.2c0,.6.1,1,.3,1.1.2.2.4.3.7.3s.4,0,.7-.2c.2-.1.5-.4.9-.7v-3.5c0-.4,0-.6-.2-.7s-.4-.2-.8-.2v-.3h2.1Z"/><path d="M952.5,25.9v2.1h1.5v.5h-1.5v4.1c0,.4,0,.7.2.8s.3.2.4.2.3,0,.4-.1c.1,0,.3-.2.3-.4h.3c-.2.4-.4.8-.7,1-.3.2-.6.3-.9.3s-.4,0-.6-.2c-.2-.1-.3-.3-.4-.5s-.1-.6-.1-1v-4.2h-1v-.2c.3-.1.5-.3.8-.5.3-.2.5-.5.7-.9.1-.2.3-.5.4-1h.2Z"/><path d="M960.5,25.5v3.7h2c.5,0,.9,0,1.1-.2.2-.2.4-.6.4-1.1h.3v3.2h-.3c0-.5-.1-.7-.2-.9,0-.2-.2-.3-.4-.4-.2,0-.5-.1-.9-.1h-2v3.1c0,.4,0,.7,0,.7,0,0,.1.2.2.2,0,0,.3,0,.5,0h1.6c.5,0,.9,0,1.1-.1.2,0,.5-.2.7-.4.3-.3.6-.7.9-1.3h.3l-.8,2.3h-7.1v-.3h.3c.2,0,.4,0,.6-.2.1,0,.2-.2.3-.3,0-.1,0-.4,0-.9v-6c0-.6,0-1-.2-1.1-.2-.2-.4-.3-.8-.3h-.3v-.3h7.1v2c.1,0-.2,0-.2,0,0-.5-.2-.8-.3-1s-.3-.3-.5-.4c-.2,0-.5-.1-1-.1h-2.5Z"/><path d="M966.4,28h2.9v.3c-.2,0-.3,0-.4,0s-.1.1-.1.3,0,.3.2.5c0,0,.1.2.2.3l.4.7.5-.7c.3-.5.5-.7.5-.9s0-.2-.1-.2c0,0-.2,0-.4,0v-.3h2.1v.3c-.2,0-.4,0-.6.2-.2.2-.5.5-.9,1l-.9,1.1,1.6,2.2c.4.6.7.9.8,1s.4.2.6.2v.2h-3v-.2c.2,0,.4,0,.5-.1,0,0,.1-.1.1-.3s-.1-.4-.4-.8l-.9-1.3-1,1.3c-.3.4-.5.7-.5.7s0,.2.2.3.3.1.5.1v.2h-2v-.2c.2,0,.3,0,.4-.2.2-.1.5-.5.9-1l1.3-1.7-1.2-1.7c-.3-.5-.6-.8-.8-.9s-.4-.2-.7-.2v-.3Z"/><path d="M973.2,28.6l1.9-.8h.3v1.5c.3-.6.6-.9,1-1.2.3-.2.7-.3,1-.3.6,0,1.2.2,1.6.7.5.6.8,1.4.8,2.4s-.3,2-.9,2.7c-.5.6-1.2.9-1.9.9s-.6,0-.9-.1c-.2,0-.4-.2-.6-.4v1.9c0,.4,0,.7,0,.8,0,.1.1.2.3.3s.4.1.7.1v.3h-3.3v-.3h.2c.3,0,.5,0,.6-.1,0,0,.2-.1.2-.2s0-.4,0-.9v-5.9c0-.4,0-.7,0-.8,0-.1,0-.2-.2-.2,0,0-.2,0-.3,0s-.2,0-.4,0v-.2ZM975.3,29.7v2.3c0,.5,0,.8,0,1,0,.3.2.5.5.7.2.2.6.3.9.3s.8-.2,1.1-.5c.4-.5.6-1.1.6-2s-.2-1.7-.6-2.2c-.3-.4-.6-.5-1-.5s-.4,0-.6.2c-.2,0-.4.3-.8.7Z"/><path d="M982.8,24.5v8.3c0,.4,0,.7,0,.8,0,.1.1.2.3.3.1,0,.3,0,.7,0v.2h-3.1v-.2c.3,0,.5,0,.6,0,.1,0,.2-.2.2-.3,0-.1,0-.4,0-.8v-5.7c0-.7,0-1.1,0-1.3,0-.2,0-.3-.2-.3,0,0-.2,0-.3,0s-.3,0-.5.1v-.2c-.1,0,1.8-.8,1.8-.8h.3Z"/><path d="M988,33.3c-.6.5-1,.8-1.2.9-.2.1-.5.2-.8.2-.4,0-.8-.1-1.1-.4s-.4-.7-.4-1.2,0-.6.2-.8c.2-.3.5-.6,1-.9.5-.3,1.2-.6,2.3-1v-.2c0-.6,0-1.1-.3-1.3s-.5-.3-.9-.3-.5,0-.7.2c-.2.2-.3.3-.3.5v.4c0,.2,0,.4-.1.5-.1.1-.2.2-.4.2s-.3,0-.4-.2c-.1-.1-.2-.3-.2-.5,0-.4.2-.8.6-1.1.4-.3,1-.5,1.7-.5s1,0,1.4.3c.3.1.5.4.6.7,0,.2.1.6.1,1.2v2.1c0,.6,0,1,0,1.1,0,.1,0,.2.1.3,0,0,.1,0,.2,0s.1,0,.2,0c0,0,.3-.2.6-.5v.4c-.5.7-1,1-1.5,1s-.4,0-.5-.2c-.1-.2-.2-.4-.2-.8ZM988,32.9v-2.4c-.7.3-1.1.5-1.3.6-.4.2-.6.4-.8.6-.2.2-.2.5-.2.7s0,.6.3.8c.2.2.4.3.7.3s.8-.2,1.4-.7Z"/><path d="M992.5,29.1c.7-.9,1.4-1.3,2.1-1.3s.6,0,.9.3.4.5.6.8c.1.3.2.7.2,1.3v2.7c0,.4,0,.7,0,.8,0,.1.1.2.2.3.1,0,.3,0,.6,0v.2h-3.1v-.2h.1c.3,0,.5,0,.6-.1s.2-.2.2-.4c0,0,0-.3,0-.6v-2.6c0-.6,0-1-.2-1.2-.1-.3-.4-.4-.7-.4-.5,0-1.1.3-1.6.9v3.3c0,.4,0,.7,0,.8,0,.1.2.2.3.3.1,0,.3,0,.7,0v.2h-3.1v-.2h.1c.3,0,.5,0,.6-.2.1-.2.2-.5.2-.9v-2.3c0-.8,0-1.2,0-1.4s0-.3-.2-.3c0,0-.2,0-.3,0s-.3,0-.5.1v-.2c-.1,0,1.8-.8,1.8-.8h.3v1.3Z"/><path d="M1001.3,33.3c-.6.5-1,.8-1.2.9-.2.1-.5.2-.8.2-.4,0-.8-.1-1.1-.4s-.4-.7-.4-1.2,0-.6.2-.8c.2-.3.5-.6,1-.9.5-.3,1.2-.6,2.3-1v-.2c0-.6,0-1.1-.3-1.3s-.5-.3-.9-.3-.5,0-.7.2c-.2.2-.3.3-.3.5v.4c0,.2,0,.4-.1.5-.1.1-.2.2-.4.2s-.3,0-.4-.2c-.1-.1-.2-.3-.2-.5,0-.4.2-.8.6-1.1.4-.3,1-.5,1.7-.5s1,0,1.4.3c.3.1.5.4.6.7,0,.2.1.6.1,1.2v2.1c0,.6,0,1,0,1.1,0,.1,0,.2.1.3,0,0,.1,0,.2,0s.1,0,.2,0c0,0,.3-.2.6-.5v.4c-.5.7-1,1-1.5,1s-.4,0-.5-.2c-.1-.2-.2-.4-.2-.8ZM1001.3,32.9v-2.4c-.7.3-1.1.5-1.3.6-.4.2-.6.4-.8.6-.2.2-.2.5-.2.7s0,.6.3.8c.2.2.4.3.7.3s.8-.2,1.4-.7Z"/><path d="M1005.7,25.9v2.1h1.5v.5h-1.5v4.1c0,.4,0,.7.2.8s.3.2.4.2.3,0,.4-.1c.1,0,.3-.2.3-.4h.3c-.2.4-.4.8-.7,1-.3.2-.6.3-.9.3s-.4,0-.6-.2c-.2-.1-.3-.3-.4-.5s-.1-.6-.1-1v-4.2h-1v-.2c.3-.1.5-.3.8-.5.3-.2.5-.5.7-.9.1-.2.3-.5.4-1h.2Z"/><path d="M1010,27.8v5c0,.4,0,.7,0,.8,0,.1.1.2.3.3.1,0,.3,0,.6,0v.2h-3v-.2c.3,0,.5,0,.6,0,.1,0,.2-.2.2-.3s0-.4,0-.8v-2.4c0-.7,0-1.1,0-1.3,0-.1,0-.2-.2-.3s-.2,0-.3,0-.3,0-.5.1v-.2c0,0,1.8-.8,1.8-.8h.3ZM1009.4,24.5c.2,0,.4,0,.5.2.1.1.2.3.2.5s0,.4-.2.5c-.1.1-.3.2-.5.2s-.4,0-.5-.2-.2-.3-.2-.5,0-.4.2-.5c.1-.1.3-.2.5-.2Z"/><path d="M1014.8,27.8c.9,0,1.7.4,2.3,1.1.5.6.7,1.3.7,2.1s-.1,1.1-.4,1.7c-.3.6-.6,1-1.1,1.3s-1,.4-1.6.4c-.9,0-1.7-.4-2.2-1.1-.5-.6-.7-1.3-.7-2.1s.1-1.1.4-1.7c.3-.6.7-1,1.1-1.3s1-.4,1.5-.4ZM1014.6,28.2c-.2,0-.5,0-.7.2-.2.1-.4.4-.6.8s-.2.8-.2,1.4c0,.9.2,1.7.5,2.4s.8,1,1.4,1,.8-.2,1.1-.5.4-1,.4-1.9-.2-2-.7-2.6c-.3-.4-.7-.7-1.2-.7Z"/><path d="M1020.5,29.1c.7-.9,1.4-1.3,2.1-1.3s.6,0,.9.3.4.5.6.8c.1.3.2.7.2,1.3v2.7c0,.4,0,.7,0,.8,0,.1.1.2.2.3.1,0,.3,0,.6,0v.2h-3.1v-.2h.1c.3,0,.5,0,.6-.1s.2-.2.2-.4c0,0,0-.3,0-.6v-2.6c0-.6,0-1-.2-1.2-.1-.3-.4-.4-.7-.4-.5,0-1.1.3-1.6.9v3.3c0,.4,0,.7,0,.8,0,.1.2.2.3.3.1,0,.3,0,.7,0v.2h-3.1v-.2h.1c.3,0,.5,0,.6-.2.1-.2.2-.5.2-.9v-2.3c0-.8,0-1.2,0-1.4s0-.3-.2-.3c0,0-.2,0-.3,0s-.3,0-.5.1v-.2c-.1,0,1.8-.8,1.8-.8h.3v1.3Z"/><path class="cls-2" d="M987.8,62.5c4.4,7.3,8.9,13.3,8.9,26.1s-14.1,24.6-12.6,25.7c.8.7,4.2-4,8.2-6.5,8.3-5.2,26-4,27.8,7.7,1.5,10-11,16.2-22.4,15"/><polygon class="cls-20" points="987.8 126.8 1003.9 125.9 998.6 130.5 999.9 137.5 987.8 126.8"/><path d="M287,193.2h.2s-.7,2.2-.7,2.2h-6.2v-.2h.3c.3,0,.6-.1.7-.3,0-.1.1-.4.1-.9v-5.1c0-.5,0-.8-.2-.9-.2-.2-.4-.3-.7-.3h-.3v-.2h3.6v.2c-.4,0-.7,0-.9.1s-.3.2-.3.3,0,.4,0,.9v5c0,.3,0,.5,0,.7,0,0,.1.1.2.2s.4,0,.9,0h.6c.6,0,1,0,1.3-.1s.5-.2.7-.5.4-.6.6-1.1Z"/><path d="M290.9,194.6c-.6.4-.9.7-1,.7-.2,0-.4.1-.7.1-.4,0-.7-.1-.9-.4s-.4-.6-.4-1,0-.5.2-.7c.2-.3.4-.5.8-.8s1.1-.5,2-.9v-.2c0-.5,0-.9-.3-1.1s-.4-.3-.7-.3-.4,0-.6.2c-.1.1-.2.3-.2.5v.3c0,.2,0,.3-.1.4s-.2.1-.4.1-.3,0-.4-.2-.1-.2-.1-.4c0-.3.2-.6.5-.9s.8-.4,1.4-.4.9,0,1.2.2c.2.1.4.3.5.6,0,.2.1.5.1,1v1.8c0,.5,0,.8,0,.9s0,.2,0,.2,0,0,.2,0,.1,0,.2,0c0,0,.2-.2.5-.4v.3c-.4.6-.9.9-1.3.9s-.3,0-.5-.2-.2-.4-.2-.7ZM290.9,194.2v-2c-.6.2-1,.4-1.1.5-.3.2-.5.4-.7.5s-.2.4-.2.6,0,.5.3.7.4.3.6.3.7-.2,1.2-.6Z"/><path d="M292.9,190h2.5v.2h-.1c-.2,0-.3,0-.4.1s-.1.2-.1.3,0,.4.2.6l1.3,2.7,1.2-3c0-.2,0-.3,0-.5s0-.1,0-.2c0,0,0,0-.1-.1s-.2,0-.4,0v-.2h1.7v.2c-.1,0-.3,0-.3,0s-.2.1-.3.3c0,0-.1.2-.2.5l-2.2,5.4c-.2.5-.5.9-.8,1.2s-.7.4-1,.4-.4,0-.6-.2-.2-.3-.2-.5,0-.3.2-.4.3-.1.4-.1.3,0,.5.1c.2,0,.3,0,.3,0,.1,0,.2,0,.4-.2s.3-.4.4-.7l.4-.9-1.9-4c0-.1-.2-.3-.3-.5,0-.1-.2-.2-.2-.3,0,0-.2-.1-.4-.2v-.2Z"/><path d="M300.1,192c0,.8.2,1.4.6,1.9s.8.7,1.4.7.7,0,.9-.3.5-.5.7-1h.2c0,.7-.3,1.1-.7,1.6s-.9.7-1.5.7-1.2-.3-1.7-.8-.7-1.2-.7-2,.2-1.6.7-2.1,1.1-.8,1.8-.8,1.1.2,1.5.6.6.9.6,1.6h-3.7ZM300.1,191.7h2.5c0-.3,0-.6-.1-.7,0-.2-.2-.4-.4-.5s-.4-.2-.6-.2c-.3,0-.6.1-.9.4s-.4.6-.4,1.1Z"/><path d="M306.1,189.8v1.2c.4-.8.9-1.2,1.4-1.2s.4,0,.5.2.2.3.2.5,0,.3-.2.4-.2.2-.4.2-.3,0-.5-.2-.3-.2-.4-.2-.1,0-.2.1c-.2.2-.4.4-.5.8v2.6c0,.3,0,.5.1.7,0,.1.1.2.3.3s.3.1.6.1v.2h-2.7v-.2c.3,0,.5,0,.6-.1,0,0,.2-.2.2-.3,0,0,0-.3,0-.6v-2.1c0-.6,0-1,0-1.1s0-.2-.1-.3-.2,0-.3,0-.3,0-.4,0v-.2c0,0,1.6-.7,1.6-.7h.2Z"/><path d="M316.6,193.8l-.6,1.5h-4.7v-.2c1.4-1.3,2.3-2.3,2.9-3.1s.8-1.5.8-2.2-.2-.9-.5-1.2-.7-.5-1.1-.5-.7.1-1.1.3-.5.6-.7,1h-.2c0-.7.3-1.3.8-1.7s.9-.6,1.5-.6,1.2.2,1.6.6.6.9.6,1.5,0,.8-.3,1.2c-.3.6-.8,1.3-1.4,2-1,1.1-1.6,1.7-1.8,1.9h2.1c.4,0,.7,0,.9,0s.3,0,.5-.2.3-.2.4-.4h.2Z"/><line class="cls-10" x1="335.4" y1="103.8" x2="335.4" y2="197.2"/><line class="cls-10" x1="261.9" y1="188.3" x2="261.9" y2="197.2"/><line class="cls-10" x1="188.9" y1="188.3" x2="188.9" y2="197.2"/><path class="cls-13" d="M813.2,115.5c-.2-.2-.4-.3-.6-.4v-2.9h.8c0-.7,0-1.3,0-2-.5,0-2.2-.2-2.5.3-.6.3-.2,4.1-.3,4.6-1.7.8-1.6,3.4.2,4,2.2,1,4.1-2,2.4-3.6Z"/><path class="cls-13" d="M805.3,114.2c-.1-.1-.3-.3-.5-.4v-6.5h6.8s0,0,0,0c-.4-.6-.7-1.3-.9-2-10.2,0-7.5-1.3-7.8,8.3-1.8.7-1.7,3.4,0,4.1,2.2,1,4.1-2,2.4-3.6Z"/><path class="cls-13" d="M802.2,102.6c1,1.1,2.9.8,3.6-.6h4.7c0-.7.3-1.3.6-2h-5.3c-1.6-3-5.9,0-3.6,2.6Z"/><path class="cls-13" d="M818.2,79c1,1.1,3,.8,3.6-.6h3.5v3c.6-.3,1.3-.6,2-.7.2-5.9,0-4-5.5-4.3-1.6-2.9-5.9.1-3.5,2.6Z"/><path class="cls-13" d="M808.4,91.1c.2.2.3.3.5.4.3,5.4-1.6,5.7,4.2,5.5.5-.6,1.7-1,1.4-2h-3.7v-3.5c1.7-.7,1.6-3.4,0-4.1-2.2-1-4.1,2-2.4,3.6Z"/><path class="cls-13" d="M855.6,96.4c4.9.3,3.2-.6,3.5-4.9,2.1-1,1.3-4.3-1-4.2-2.3,0-3.1,3.3-1,4.2v2.9h-1.4c0,.7,0,1.3-.1,2Z"/><path class="cls-13" d="M829.2,72.1c.2.5.6.9,1.1,1.1v7.6c.7.2,1.4.5,2,1,0,0,0-8.6,0-8.6,1.7-.8,1.6-3.4-.1-4-1.7-.8-3.7,1.1-2.9,2.9Z"/><path class="cls-13" d="M864.4,92.4c.1.1.3.3.5.4v6.5h-7.3c.4.6.7,1.3.9,2,10.3-.2,8.3,2,8.4-8.3,1.8-.7,1.7-3.4,0-4.1-2.2-1-4.1,2-2.4,3.6Z"/><path class="cls-13" d="M848.2,77.1c-1-.4-2.3,0-2.8,1h-3.9c-1.3,0-1,1.7-1,2.5.7,0,1.3.2,2,.4v-.9h2.9c2,3.5,6.5-1.2,2.8-3Z"/><path class="cls-13" d="M837.6,81.2v-8.8h6.5c1,2,4.2,1.1,4.2-1.1,0-2.3-3.4-3.1-4.3-.9-11.7,0-7.6-1.8-8.3,12.2.6-.6,1.2-1.1,2-1.4Z"/><path class="cls-13" d="M855.6,105.6c1-2.8-.2-6-2.4-7.9.1-2.3,0-5-1.8-6.8-1.4-1.6-3.4-2.8-5.6-2.8-.2,0-.3,0-.3-.2-.4-1.7-1.7-3.2-3.3-4-2.7-1.5-6.1-.4-7.7,2.3-.7,0-1.3-1.6-2.1-1.9-3.2-2.4-8.1-.3-9.1,3.3-.2,1-1.8.7-2.6,1.4-2.5,1.5-4,4.6-3.8,7.5-.2.6-1,.8-1.4,1.3-3.6,3.1-2.7,8.2.4,11.2-1.1,4.8,3,8.8,7.3,9.5,1.1,5.1,8.5,6.6,11,1.7.1-.2.5-.2.6,0,2.4,5,10,3.1,11.2-1.8,1.6-.8,3.6-1.4,4.6-3.2,1.3-1.6,1.4-3.7,1.6-5.6,1.5-1,2.7-2.4,3.3-4ZM853.5,105c-.5,1.8-2.3,2.6-3.6,3.8,0,1.8,0,3.8-1.1,5.3-.5.7-2,2.4-2.9,1.7-.6-2.1-1.8-2.7-3.6-3.7-.8-.4-1.8.4-1.5,1.3,1.1,1.5,3.4,1.5,3.2,3.9,0,2.5-3,4.4-5.4,3.8-3-.8-2-4.2-3.5-5-.7-.2-1.9,0-1.9.9-1.8,9.3-13.5,1-5.3-3,1.2-.6.3-2.5-1-1.9-1.9,1-3.1,1.7-3.8,3.8,0,.1-.2.2-.3.2-3.3-.2-5.9-4.1-4.7-7.3.3-1.9-5.2-3.5-2-8.6.6-1.1,2-1.6,2.8-2.5-.1-2.9.7-6.5,3.9-7.3.6-.3,1.6,4.4,3.5,2.7,1.2-1.6-3.2-2.8-.3-6.3,1.4-1.6,4.1-2.1,5.7-.4,1,.7,1,3.2,2.8,2.9,1.8,0,.9-1.6,2.2-2.7,2.8-3.5,8.8.9,6.1,4.5-1,2,1.9,2.8,2.6-.6,1.9-.9,4.4,1.4,5.2,3.2.8,1.5.2,3,.2,4.6,1.7,1.7,3.8,3.9,2.7,6.6Z"/><path class="cls-13" d="M861.3,115.5c-.2-.2-.3-.3-.5-.4-.2-5.8,1.5-5.7-4.9-5.5-.6.6-1.6.9-1.4,2h4.3v3.5c-1.7.7-1.6,3.4.1,4.1,2.2,1,4.1-2,2.4-3.6Z"/><path class="cls-13" d="M839.5,134.7c-.2-.5-.6-.9-1.1-1.1v-7.8c-.7-.2-1.4-.6-2-1.1v8.9c-1.7.8-1.6,3.4.1,4,1.7.8,3.7-1.1,2.9-2.9Z"/><path class="cls-13" d="M831,125.5v8.9h-6.5c-1-2-4.2-1.1-4.2,1.1,0,2.3,3.4,3.1,4.3.9,11.7,0,7.6,1.8,8.3-12.3-.6.6-1.3,1.1-2,1.4Z"/><path class="cls-13" d="M867.5,104.1c-1-1.1-2.9-.8-3.6.6h-5.3c-.1.7-.3,1.4-.6,2h5.9c1.6,3,5.9-.1,3.6-2.6Z"/><path class="cls-13" d="M850.5,127.7c-1-1.1-3-.7-3.6.6h-3.5v-3.1c-.6.3-1.3.5-2,.6-.2,6.1,0,4.1,5.5,4.4,1.6,2.9,5.9-.1,3.5-2.6Z"/><path class="cls-13" d="M820.5,129.7c1,.4,2.3,0,2.8-1h3.9c1.3,0,.9-1.8,1-2.6-.7,0-1.3-.2-2-.4v1h-2.9c-2-3.5-6.5,1.2-2.8,3Z"/><path class="cls-13" d="M822.2,103.2c0-2.8,1.9-4.4,4.1-4.4s2.1.5,2.7,1.1l-1,1.2c-.4-.4-.9-.7-1.6-.7-1.3,0-2.2,1-2.2,2.7s.8,2.8,2.4,2.8.7,0,.9-.3v-1.5h-1.4v-1.6h3.1v3.9c-.6.6-1.6,1-2.8,1-2.3,0-4.1-1.5-4.1-4.3Z"/><path class="cls-13" d="M830.9,98.9h2l2.2,4.2.8,1.9h0c0-.9-.2-2.1-.2-3.1v-3h1.8v8.5h-2l-2.2-4.2-.8-1.9h0c0,.9.2,2.1.2,3.1v3h-1.8v-8.5Z"/><path class="cls-13" d="M839.5,98.9h2l2.2,4.2.8,1.9h0c0-.9-.2-2.1-.2-3.1v-3h1.8v8.5h-2l-2.2-4.2-.8-1.9h0c0,.9.2,2.1.2,3.1v3h-1.8v-8.5Z"/><path class="cls-15" d="M838.9,27.3c.7,0,1.3.1,2,.3,0,0,3.4-5.9,3.4-5.9-1.1-1.3-1.6-3.2-.8-5.2s1.4-2,2.5-2.4c4.1-1.6,7.9,2.2,6.3,6.3s-1.3,2-2.4,2.4-2,.5-2.8.3c0,0-3.4,5.9-3.4,6,1.3,1.2,2.1,2.9,2.1,4.8s-.5,3-1.5,4.2c0,0,2.2,2.5,2.2,2.5,1.1-.4,2.3-.4,3.5,0s2,1.3,2.5,2.5c1.6,4.1-2.2,7.9-6.3,6.4s-2.1-1.3-2.5-2.5c-.7-1.7-.4-3.3.4-4.5,0,0-2.1-2.4-2.2-2.5-.8.4-1.8.6-2.8.6-2,0-3.8-.9-5-2.3,0,0-8.5,4.5-8.5,4.5.6,1.2.8,2.7.2,4.2s-1.3,2-2.4,2.4c-4.1,1.6-7.9-2.1-6.4-6.1s1.1-1.9,2.1-2.5c1.4-.7,3-.7,4.2-.2.1-.1,9.4-5,9.4-5-.1-.5-.2-1.1-.2-1.7,0-1,.2-1.9.6-2.8,0,0-8.9-6.6-8.9-6.6-1.2.9-2.9,1.1-4.6.5s-2.1-1.3-2.5-2.5c-1.7-4.2,2.4-8.2,6.6-6.2s1.1.7,1.5,1.2c1.1,1.5,1.2,3.1.8,4.5,0,0,8.9,6.6,9,6.7,1.1-.9,2.6-1.5,4.2-1.5h0Z"/><path class="cls-1" d="M840.1,170.1c.7,0,1.3.1,2,.3,0,0,3.4-5.9,3.4-5.9-.8-.8-1.2-2-1.2-3.2,0-2.6,2.1-4.8,4.8-4.8s4.8,2.1,4.8,4.8-2.1,4.8-4.8,4.8-.6,0-.9,0c0,0-3.4,5.9-3.4,6,1.3,1.2,2.1,2.9,2.1,4.8s-.5,3-1.5,4.2c0,0,2.2,2.5,2.2,2.5.5-.2,1-.3,1.6-.3,2.6,0,4.8,2.1,4.8,4.8s-2.1,4.8-4.8,4.8-4.8-2.1-4.8-4.8.3-1.8.8-2.6c0,0-2.1-2.4-2.2-2.5-.8.4-1.8.6-2.8.6-2,0-3.8-.9-5-2.3,0,0-8.5,4.5-8.5,4.5.4.7.6,1.4.6,2.3,0,2.6-2.1,4.8-4.8,4.8s-4.8-2.1-4.8-4.8,2.1-4.8,4.8-4.8,1.3.1,1.8.4c.1-.1.2-.2.4-.3,0,0,9-4.7,9-4.8-.1-.5-.2-1.1-.2-1.7,0-1,.2-1.9.6-2.8,0,0-8.9-6.6-8.9-6.6-.8.5-1.7.9-2.7.9-2.6,0-4.8-2.1-4.8-4.8s2.1-4.8,4.8-4.8,4.8,2.1,4.8,4.8,0,1-.2,1.5c0,0,8.9,6.6,9,6.7,1.1-.9,2.6-1.5,4.2-1.5Z"/><rect class="cls-11" x="791.3" y="8.9" width="84.5" height="192"/><line class="cls-9" x1="834.8" y1="48.7" x2="834.8" y2="60"/><polygon points="831 58.9 834.8 65.3 838.5 58.9 831 58.9"/><line class="cls-9" x1="835.5" y1="141.8" x2="835.5" y2="152.3"/><polygon points="831.8 151.2 835.5 157.7 839.3 151.2 831.8 151.2"/></g></svg>
